<svg xmlns="http://www.w3.org/2000/svg" xmlns:xlink="http://www.w3.org/1999/xlink" width="300" zoomAndPan="magnify" viewBox="0 0 224.87999 74.999997" height="100" preserveAspectRatio="xMidYMid meet" version="1.0"><defs><g><g id="id1"/></g><clipPath id="id2"><path d="M 17 9 L 53.222656 9 L 53.222656 61.351562 L 17 61.351562 Z M 17 9 " clip-rule="nonzero"/></clipPath><clipPath id="id3"><path d="M 7.496094 11 L 18 11 L 18 61.351562 L 7.496094 61.351562 Z M 7.496094 11 " clip-rule="nonzero"/></clipPath><clipPath id="id4"><path d="M 12 7.378906 L 45 7.378906 L 45 14 L 12 14 Z M 12 7.378906 " clip-rule="nonzero"/></clipPath><clipPath id="id5"><path d="M 7.496094 11 L 15 11 L 15 57 L 7.496094 57 Z M 7.496094 11 " clip-rule="nonzero"/></clipPath><clipPath id="id6"><path d="M 7.496094 54 L 18 54 L 18 61.351562 L 7.496094 61.351562 Z M 7.496094 54 " clip-rule="nonzero"/></clipPath></defs><g clip-path="url(#id2)"><path fill="rgb(0%, 76.078796%, 79.60968%)" d="M 17.027344 13.066406 L 44.898438 9.207031 L 53.210938 50.226562 L 17.027344 61.328125 L 17.027344 13.066406 " fill-opacity="1" fill-rule="nonzero"/></g><g clip-path="url(#id3)"><path fill="rgb(1.179504%, 59.609985%, 61.959839%)" d="M 7.492188 56.019531 L 12.625 11.378906 L 17.027344 13.066406 L 17.027344 61.328125 L 7.492188 56.019531 " fill-opacity="1" fill-rule="nonzero"/></g><g clip-path="url(#id4)"><path fill="rgb(6.269836%, 46.669006%, 48.239136%)" d="M 12.625 11.378906 L 40.433594 7.382812 L 44.898438 9.207031 L 17.027344 13.066406 L 12.625 11.378906 " fill-opacity="1" fill-rule="nonzero"/></g><g clip-path="url(#id5)"><path fill="rgb(4.708862%, 49.01886%, 50.979614%)" d="M 7.492188 56.019531 L 13.6875 54.652344 L 14.640625 12.152344 L 12.625 11.378906 L 7.492188 56.019531 " fill-opacity="1" fill-rule="nonzero"/></g><g clip-path="url(#id6)"><path fill="rgb(6.269836%, 46.669006%, 48.239136%)" d="M 13.6875 54.652344 L 17.027344 61.328125 L 7.492188 56.019531 Z M 13.6875 54.652344 " fill-opacity="1" fill-rule="nonzero"/></g><path fill="rgb(6.269836%, 46.669006%, 48.239136%)" d="M 25.078125 19.242188 C 25.078125 19.785156 24.628906 20.226562 24.078125 20.226562 C 23.527344 20.226562 23.082031 19.785156 23.082031 19.242188 C 23.082031 18.695312 23.527344 18.253906 24.078125 18.253906 C 24.628906 18.253906 25.078125 18.695312 25.078125 19.242188 " fill-opacity="1" fill-rule="nonzero"/><path fill="rgb(6.269836%, 46.669006%, 48.239136%)" d="M 42.800781 16.386719 C 42.800781 16.929688 42.355469 17.371094 41.804688 17.371094 C 41.253906 17.371094 40.804688 16.929688 40.804688 16.386719 C 40.804688 15.839844 41.253906 15.398438 41.804688 15.398438 C 42.355469 15.398438 42.800781 15.839844 42.800781 16.386719 " fill-opacity="1" fill-rule="nonzero"/><path fill="rgb(10.5896%, 16.468811%, 29.019165%)" d="M 42.5 19.164062 C 42.539062 18.230469 42.492188 17.257812 42.359375 16.277344 C 42.355469 16.25 42.339844 16.222656 42.316406 16.207031 C 42.292969 16.1875 42.265625 16.179688 42.234375 16.183594 L 41.378906 16.324219 C 41.316406 16.332031 41.277344 16.390625 41.285156 16.449219 C 41.449219 17.445312 41.507812 18.441406 41.46875 19.410156 C 41.339844 22.417969 40.339844 25.207031 38.652344 27.261719 C 36.96875 29.3125 34.804688 30.390625 32.554688 30.296875 C 32.351562 30.289062 32.144531 30.273438 31.941406 30.242188 C 27.683594 29.660156 24.519531 24.902344 24.585938 19.179688 C 24.585938 19.148438 24.570312 19.117188 24.546875 19.097656 C 24.523438 19.078125 24.492188 19.066406 24.457031 19.070312 L 23.722656 19.191406 C 23.667969 19.199219 23.628906 19.246094 23.628906 19.300781 C 23.703125 25.449219 27.242188 30.5625 31.855469 31.195312 C 32.082031 31.226562 32.3125 31.246094 32.542969 31.257812 C 35.070312 31.359375 37.5 30.15625 39.378906 27.863281 C 41.253906 25.582031 42.363281 22.492188 42.5 19.164062 " fill-opacity="1" fill-rule="nonzero"/><g fill="rgb(0%, 0%, 0%)" fill-opacity="1"><g transform="translate(69.696069, 43.578249)"><g><path d="M 1.734375 0.0625 C 1.441406 0.0625 1.1875 -0.00390625 0.96875 -0.140625 C 0.75 -0.285156 0.582031 -0.476562 0.46875 -0.71875 C 0.351562 -0.96875 0.296875 -1.242188 0.296875 -1.546875 C 0.296875 -1.835938 0.351562 -2.101562 0.46875 -2.34375 C 0.582031 -2.59375 0.75 -2.789062 0.96875 -2.9375 C 1.1875 -3.082031 1.441406 -3.15625 1.734375 -3.15625 C 2.035156 -3.15625 2.296875 -3.082031 2.515625 -2.9375 C 2.734375 -2.789062 2.898438 -2.59375 3.015625 -2.34375 C 3.128906 -2.101562 3.1875 -1.835938 3.1875 -1.546875 C 3.1875 -1.242188 3.128906 -0.96875 3.015625 -0.71875 C 2.898438 -0.476562 2.734375 -0.285156 2.515625 -0.140625 C 2.296875 -0.00390625 2.035156 0.0625 1.734375 0.0625 Z M 1.734375 -0.203125 C 1.898438 -0.203125 2.046875 -0.257812 2.171875 -0.375 C 2.296875 -0.488281 2.390625 -0.648438 2.453125 -0.859375 C 2.523438 -1.066406 2.5625 -1.296875 2.5625 -1.546875 C 2.5625 -1.796875 2.523438 -2.019531 2.453125 -2.21875 C 2.390625 -2.425781 2.296875 -2.585938 2.171875 -2.703125 C 2.046875 -2.828125 1.898438 -2.890625 1.734375 -2.890625 C 1.578125 -2.890625 1.4375 -2.828125 1.3125 -2.703125 C 1.1875 -2.585938 1.085938 -2.425781 1.015625 -2.21875 C 0.953125 -2.019531 0.921875 -1.796875 0.921875 -1.546875 C 0.921875 -1.296875 0.953125 -1.066406 1.015625 -0.859375 C 1.085938 -0.648438 1.1875 -0.488281 1.3125 -0.375 C 1.4375 -0.257812 1.578125 -0.203125 1.734375 -0.203125 Z M 1.734375 -0.203125 "/></g></g></g><g fill="rgb(0%, 0%, 0%)" fill-opacity="1"><g transform="translate(73.990802, 43.578249)"><g><path d="M 0.578125 -2.296875 C 0.578125 -2.515625 0.546875 -2.675781 0.484375 -2.78125 C 0.421875 -2.894531 0.296875 -2.953125 0.109375 -2.953125 L -0.015625 -2.953125 L -0.015625 -3.078125 L 0.578125 -3.078125 C 0.734375 -3.078125 0.851562 -3.054688 0.9375 -3.015625 C 1.019531 -2.972656 1.082031 -2.910156 1.125 -2.828125 L 1.15625 -2.828125 C 1.25 -2.910156 1.367188 -2.984375 1.515625 -3.046875 C 1.660156 -3.117188 1.828125 -3.15625 2.015625 -3.15625 C 2.335938 -3.15625 2.601562 -3.066406 2.8125 -2.890625 C 3.019531 -2.710938 3.125 -2.40625 3.125 -1.96875 L 3.125 0 L 2.546875 0 L 2.546875 -1.96875 C 2.546875 -2.269531 2.472656 -2.492188 2.328125 -2.640625 C 2.191406 -2.785156 2.019531 -2.859375 1.8125 -2.859375 C 1.582031 -2.859375 1.363281 -2.738281 1.15625 -2.5 L 1.15625 0 L 0.578125 0 Z M 0.578125 -2.296875 "/></g></g></g><g fill="rgb(0%, 0%, 0%)" fill-opacity="1"><g transform="translate(78.377329, 43.578249)"><g><path d="M 0.5 -3.546875 C 0.5 -3.765625 0.46875 -3.925781 0.40625 -4.03125 C 0.34375 -4.144531 0.222656 -4.203125 0.046875 -4.203125 L -0.09375 -4.203125 L -0.09375 -4.328125 L 0.5 -4.328125 C 0.65625 -4.328125 0.773438 -4.304688 0.859375 -4.265625 C 0.941406 -4.222656 1 -4.144531 1.03125 -4.03125 C 1.070312 -3.925781 1.09375 -3.765625 1.09375 -3.546875 L 1.09375 0 L 0.5 0 Z M 0.5 -3.546875 "/></g></g></g><g fill="rgb(0%, 0%, 0%)" fill-opacity="1"><g transform="translate(80.783705, 43.578249)"><g><path d="M 0.8125 -3.484375 C 0.71875 -3.484375 0.632812 -3.523438 0.5625 -3.609375 C 0.488281 -3.691406 0.453125 -3.785156 0.453125 -3.890625 C 0.453125 -3.984375 0.476562 -4.054688 0.53125 -4.109375 C 0.582031 -4.160156 0.65625 -4.1875 0.75 -4.1875 C 0.851562 -4.1875 0.941406 -4.144531 1.015625 -4.0625 C 1.085938 -3.976562 1.125 -3.878906 1.125 -3.765625 C 1.125 -3.679688 1.09375 -3.613281 1.03125 -3.5625 C 0.976562 -3.507812 0.90625 -3.484375 0.8125 -3.484375 Z M 0.578125 -2.296875 C 0.578125 -2.515625 0.546875 -2.675781 0.484375 -2.78125 C 0.421875 -2.894531 0.296875 -2.953125 0.109375 -2.953125 L -0.015625 -2.953125 L -0.015625 -3.078125 L 0.578125 -3.078125 C 0.734375 -3.078125 0.851562 -3.054688 0.9375 -3.015625 C 1.019531 -2.972656 1.078125 -2.894531 1.109375 -2.78125 C 1.140625 -2.675781 1.15625 -2.515625 1.15625 -2.296875 L 1.15625 0 L 0.578125 0 Z M 0.578125 -2.296875 "/></g></g></g><g fill="rgb(0%, 0%, 0%)" fill-opacity="1"><g transform="translate(83.216309, 43.578249)"><g><path d="M 0.578125 -2.296875 C 0.578125 -2.515625 0.546875 -2.675781 0.484375 -2.78125 C 0.421875 -2.894531 0.296875 -2.953125 0.109375 -2.953125 L -0.015625 -2.953125 L -0.015625 -3.078125 L 0.578125 -3.078125 C 0.734375 -3.078125 0.851562 -3.054688 0.9375 -3.015625 C 1.019531 -2.972656 1.082031 -2.910156 1.125 -2.828125 L 1.15625 -2.828125 C 1.25 -2.910156 1.367188 -2.984375 1.515625 -3.046875 C 1.660156 -3.117188 1.828125 -3.15625 2.015625 -3.15625 C 2.335938 -3.15625 2.601562 -3.066406 2.8125 -2.890625 C 3.019531 -2.710938 3.125 -2.40625 3.125 -1.96875 L 3.125 0 L 2.546875 0 L 2.546875 -1.96875 C 2.546875 -2.269531 2.472656 -2.492188 2.328125 -2.640625 C 2.191406 -2.785156 2.019531 -2.859375 1.8125 -2.859375 C 1.582031 -2.859375 1.363281 -2.738281 1.15625 -2.5 L 1.15625 0 L 0.578125 0 Z M 0.578125 -2.296875 "/></g></g></g><g fill="rgb(0%, 0%, 0%)" fill-opacity="1"><g transform="translate(87.602838, 43.578249)"><g><path d="M 1.671875 0.0625 C 1.378906 0.0625 1.128906 -0.00390625 0.921875 -0.140625 C 0.710938 -0.285156 0.554688 -0.476562 0.453125 -0.71875 C 0.347656 -0.96875 0.296875 -1.242188 0.296875 -1.546875 C 0.296875 -1.835938 0.347656 -2.101562 0.453125 -2.34375 C 0.554688 -2.59375 0.707031 -2.789062 0.90625 -2.9375 C 1.101562 -3.082031 1.335938 -3.15625 1.609375 -3.15625 C 2.046875 -3.15625 2.375 -3.03125 2.59375 -2.78125 C 2.8125 -2.53125 2.921875 -2.171875 2.921875 -1.703125 L 2.90625 -1.4375 L 0.921875 -1.4375 C 0.921875 -1.070312 1 -0.773438 1.15625 -0.546875 C 1.3125 -0.316406 1.523438 -0.203125 1.796875 -0.203125 C 2.003906 -0.203125 2.179688 -0.242188 2.328125 -0.328125 C 2.472656 -0.410156 2.601562 -0.539062 2.71875 -0.71875 L 2.859375 -0.625 C 2.710938 -0.382812 2.539062 -0.207031 2.34375 -0.09375 C 2.15625 0.0078125 1.929688 0.0625 1.671875 0.0625 Z M 2.296875 -1.703125 C 2.296875 -2.085938 2.238281 -2.378906 2.125 -2.578125 C 2.007812 -2.785156 1.835938 -2.890625 1.609375 -2.890625 C 1.472656 -2.890625 1.351562 -2.835938 1.25 -2.734375 C 1.144531 -2.628906 1.0625 -2.488281 1 -2.3125 C 0.945312 -2.132812 0.921875 -1.929688 0.921875 -1.703125 Z M 2.296875 -1.703125 "/></g></g></g><g fill="rgb(0%, 0%, 0%)" fill-opacity="1"><g transform="translate(91.622185, 43.578249)"><g/></g></g><g fill="rgb(0%, 0%, 0%)" fill-opacity="1"><g transform="translate(94.081013, 43.578249)"><g><path d="M 0.140625 -2.828125 L 0.140625 -3.078125 L 0.59375 -3.078125 L 0.59375 -3.28125 C 0.59375 -4.019531 0.976562 -4.390625 1.75 -4.390625 C 2.019531 -4.390625 2.203125 -4.359375 2.296875 -4.296875 C 2.378906 -4.242188 2.457031 -4.144531 2.53125 -4 L 2.34375 -3.84375 C 2.207031 -4.039062 2 -4.140625 1.71875 -4.140625 C 1.363281 -4.140625 1.1875 -3.851562 1.1875 -3.28125 L 1.1875 -3.078125 L 2.109375 -3.078125 L 2.109375 -2.828125 L 1.1875 -2.828125 L 1.1875 0 L 0.59375 0 L 0.59375 -2.828125 Z M 0.140625 -2.828125 "/></g></g></g><g fill="rgb(0%, 0%, 0%)" fill-opacity="1"><g transform="translate(97.110283, 43.578249)"><g><path d="M 1.203125 0.0625 C 1.066406 0.0625 0.925781 0.0351562 0.78125 -0.015625 C 0.632812 -0.078125 0.507812 -0.175781 0.40625 -0.3125 C 0.300781 -0.445312 0.25 -0.628906 0.25 -0.859375 C 0.25 -1.191406 0.40625 -1.425781 0.71875 -1.5625 C 1.03125 -1.695312 1.429688 -1.765625 1.921875 -1.765625 L 2.125 -1.765625 C 2.125 -2.203125 2.0625 -2.5 1.9375 -2.65625 C 1.820312 -2.8125 1.65625 -2.890625 1.4375 -2.890625 C 1.238281 -2.890625 1.078125 -2.847656 0.953125 -2.765625 C 0.835938 -2.679688 0.757812 -2.535156 0.71875 -2.328125 L 0.421875 -2.328125 C 0.421875 -2.472656 0.425781 -2.585938 0.4375 -2.671875 C 0.457031 -2.765625 0.503906 -2.847656 0.578125 -2.921875 C 0.660156 -2.992188 0.789062 -3.050781 0.96875 -3.09375 C 1.15625 -3.132812 1.351562 -3.15625 1.5625 -3.15625 C 1.914062 -3.15625 2.195312 -3.054688 2.40625 -2.859375 C 2.613281 -2.671875 2.71875 -2.304688 2.71875 -1.765625 L 2.71875 0 L 2.390625 0 L 2.15625 -0.296875 L 2.125 -0.296875 C 2.050781 -0.191406 1.9375 -0.101562 1.78125 -0.03125 C 1.625 0.03125 1.429688 0.0625 1.203125 0.0625 Z M 1.5 -0.234375 C 1.644531 -0.234375 1.765625 -0.265625 1.859375 -0.328125 C 1.960938 -0.398438 2.050781 -0.5 2.125 -0.625 L 2.125 -1.515625 L 1.921875 -1.515625 C 1.597656 -1.515625 1.34375 -1.453125 1.15625 -1.328125 C 0.96875 -1.203125 0.875 -1.046875 0.875 -0.859375 C 0.875 -0.648438 0.929688 -0.492188 1.046875 -0.390625 C 1.171875 -0.285156 1.320312 -0.234375 1.5 -0.234375 Z M 1.5 -0.234375 "/></g></g></g><g fill="rgb(0%, 0%, 0%)" fill-opacity="1"><g transform="translate(101.083732, 43.578249)"><g><path d="M 1.5 0.0625 C 1 0.0625 0.660156 -0.0234375 0.484375 -0.203125 C 0.410156 -0.273438 0.363281 -0.359375 0.34375 -0.453125 C 0.332031 -0.546875 0.328125 -0.691406 0.328125 -0.890625 L 0.453125 -0.890625 C 0.492188 -0.671875 0.585938 -0.5 0.734375 -0.375 C 0.890625 -0.257812 1.101562 -0.203125 1.375 -0.203125 C 1.613281 -0.203125 1.789062 -0.242188 1.90625 -0.328125 C 2.03125 -0.410156 2.09375 -0.519531 2.09375 -0.65625 C 2.09375 -0.78125 2.046875 -0.890625 1.953125 -0.984375 C 1.859375 -1.078125 1.707031 -1.164062 1.5 -1.25 L 1.109375 -1.40625 C 0.847656 -1.507812 0.648438 -1.628906 0.515625 -1.765625 C 0.390625 -1.910156 0.328125 -2.085938 0.328125 -2.296875 C 0.328125 -2.566406 0.425781 -2.773438 0.625 -2.921875 C 0.820312 -3.078125 1.082031 -3.15625 1.40625 -3.15625 C 1.882812 -3.15625 2.210938 -3.066406 2.390625 -2.890625 C 2.460938 -2.816406 2.503906 -2.734375 2.515625 -2.640625 C 2.535156 -2.546875 2.546875 -2.398438 2.546875 -2.203125 L 2.421875 -2.203125 C 2.390625 -2.421875 2.296875 -2.585938 2.140625 -2.703125 C 1.992188 -2.828125 1.789062 -2.890625 1.53125 -2.890625 C 1.332031 -2.890625 1.171875 -2.84375 1.046875 -2.75 C 0.929688 -2.664062 0.875 -2.554688 0.875 -2.421875 C 0.875 -2.203125 1.050781 -2.019531 1.40625 -1.875 L 1.796875 -1.703125 C 2.097656 -1.578125 2.316406 -1.445312 2.453125 -1.3125 C 2.585938 -1.175781 2.65625 -1 2.65625 -0.78125 C 2.65625 -0.519531 2.546875 -0.3125 2.328125 -0.15625 C 2.117188 -0.0078125 1.84375 0.0625 1.5 0.0625 Z M 1.5 0.0625 "/></g></g></g><g fill="rgb(0%, 0%, 0%)" fill-opacity="1"><g transform="translate(104.827692, 43.578249)"><g><path d="M 0.46875 -3.546875 C 0.46875 -3.765625 0.4375 -3.925781 0.375 -4.03125 C 0.3125 -4.144531 0.191406 -4.203125 0.015625 -4.203125 L -0.125 -4.203125 L -0.125 -4.328125 L 0.46875 -4.328125 C 0.632812 -4.328125 0.753906 -4.304688 0.828125 -4.265625 C 0.910156 -4.222656 0.96875 -4.144531 1 -4.03125 C 1.039062 -3.925781 1.0625 -3.765625 1.0625 -3.546875 L 1.0625 -2.828125 C 1.15625 -2.910156 1.273438 -2.984375 1.421875 -3.046875 C 1.566406 -3.117188 1.734375 -3.15625 1.921875 -3.15625 C 2.242188 -3.15625 2.507812 -3.066406 2.71875 -2.890625 C 2.925781 -2.710938 3.03125 -2.40625 3.03125 -1.96875 L 3.03125 0 L 2.4375 0 L 2.4375 -1.96875 C 2.4375 -2.269531 2.367188 -2.492188 2.234375 -2.640625 C 2.097656 -2.785156 1.925781 -2.859375 1.71875 -2.859375 C 1.488281 -2.859375 1.269531 -2.738281 1.0625 -2.5 L 1.0625 0 L 0.46875 0 Z M 0.46875 -3.546875 "/></g></g></g><g fill="rgb(0%, 0%, 0%)" fill-opacity="1"><g transform="translate(109.115866, 43.578249)"><g><path d="M 0.8125 -3.484375 C 0.71875 -3.484375 0.632812 -3.523438 0.5625 -3.609375 C 0.488281 -3.691406 0.453125 -3.785156 0.453125 -3.890625 C 0.453125 -3.984375 0.476562 -4.054688 0.53125 -4.109375 C 0.582031 -4.160156 0.65625 -4.1875 0.75 -4.1875 C 0.851562 -4.1875 0.941406 -4.144531 1.015625 -4.0625 C 1.085938 -3.976562 1.125 -3.878906 1.125 -3.765625 C 1.125 -3.679688 1.09375 -3.613281 1.03125 -3.5625 C 0.976562 -3.507812 0.90625 -3.484375 0.8125 -3.484375 Z M 0.578125 -2.296875 C 0.578125 -2.515625 0.546875 -2.675781 0.484375 -2.78125 C 0.421875 -2.894531 0.296875 -2.953125 0.109375 -2.953125 L -0.015625 -2.953125 L -0.015625 -3.078125 L 0.578125 -3.078125 C 0.734375 -3.078125 0.851562 -3.054688 0.9375 -3.015625 C 1.019531 -2.972656 1.078125 -2.894531 1.109375 -2.78125 C 1.140625 -2.675781 1.15625 -2.515625 1.15625 -2.296875 L 1.15625 0 L 0.578125 0 Z M 0.578125 -2.296875 "/></g></g></g><g fill="rgb(0%, 0%, 0%)" fill-opacity="1"><g transform="translate(111.548471, 43.578249)"><g><path d="M 1.734375 0.0625 C 1.441406 0.0625 1.1875 -0.00390625 0.96875 -0.140625 C 0.75 -0.285156 0.582031 -0.476562 0.46875 -0.71875 C 0.351562 -0.96875 0.296875 -1.242188 0.296875 -1.546875 C 0.296875 -1.835938 0.351562 -2.101562 0.46875 -2.34375 C 0.582031 -2.59375 0.75 -2.789062 0.96875 -2.9375 C 1.1875 -3.082031 1.441406 -3.15625 1.734375 -3.15625 C 2.035156 -3.15625 2.296875 -3.082031 2.515625 -2.9375 C 2.734375 -2.789062 2.898438 -2.59375 3.015625 -2.34375 C 3.128906 -2.101562 3.1875 -1.835938 3.1875 -1.546875 C 3.1875 -1.242188 3.128906 -0.96875 3.015625 -0.71875 C 2.898438 -0.476562 2.734375 -0.285156 2.515625 -0.140625 C 2.296875 -0.00390625 2.035156 0.0625 1.734375 0.0625 Z M 1.734375 -0.203125 C 1.898438 -0.203125 2.046875 -0.257812 2.171875 -0.375 C 2.296875 -0.488281 2.390625 -0.648438 2.453125 -0.859375 C 2.523438 -1.066406 2.5625 -1.296875 2.5625 -1.546875 C 2.5625 -1.796875 2.523438 -2.019531 2.453125 -2.21875 C 2.390625 -2.425781 2.296875 -2.585938 2.171875 -2.703125 C 2.046875 -2.828125 1.898438 -2.890625 1.734375 -2.890625 C 1.578125 -2.890625 1.4375 -2.828125 1.3125 -2.703125 C 1.1875 -2.585938 1.085938 -2.425781 1.015625 -2.21875 C 0.953125 -2.019531 0.921875 -1.796875 0.921875 -1.546875 C 0.921875 -1.296875 0.953125 -1.066406 1.015625 -0.859375 C 1.085938 -0.648438 1.1875 -0.488281 1.3125 -0.375 C 1.4375 -0.257812 1.578125 -0.203125 1.734375 -0.203125 Z M 1.734375 -0.203125 "/></g></g></g><g fill="rgb(0%, 0%, 0%)" fill-opacity="1"><g transform="translate(115.843204, 43.578249)"><g><path d="M 0.578125 -2.296875 C 0.578125 -2.515625 0.546875 -2.675781 0.484375 -2.78125 C 0.421875 -2.894531 0.296875 -2.953125 0.109375 -2.953125 L -0.015625 -2.953125 L -0.015625 -3.078125 L 0.578125 -3.078125 C 0.734375 -3.078125 0.851562 -3.054688 0.9375 -3.015625 C 1.019531 -2.972656 1.082031 -2.910156 1.125 -2.828125 L 1.15625 -2.828125 C 1.25 -2.910156 1.367188 -2.984375 1.515625 -3.046875 C 1.660156 -3.117188 1.828125 -3.15625 2.015625 -3.15625 C 2.335938 -3.15625 2.601562 -3.066406 2.8125 -2.890625 C 3.019531 -2.710938 3.125 -2.40625 3.125 -1.96875 L 3.125 0 L 2.546875 0 L 2.546875 -1.96875 C 2.546875 -2.269531 2.472656 -2.492188 2.328125 -2.640625 C 2.191406 -2.785156 2.019531 -2.859375 1.8125 -2.859375 C 1.582031 -2.859375 1.363281 -2.738281 1.15625 -2.5 L 1.15625 0 L 0.578125 0 Z M 0.578125 -2.296875 "/></g></g></g><g fill="rgb(6.269836%, 46.669006%, 48.239136%)" fill-opacity="1"><g transform="translate(53.998966, 28.618193)"><g><path d="M 5.964844 0.257812 C 9.332031 0.257812 10.984375 -1.613281 10.984375 -2.875 C 10.984375 -3.5625 10.59375 -3.996094 10.058594 -3.996094 C 9.785156 -3.996094 9.46875 -3.859375 9.136719 -3.601562 C 8.78125 -3.328125 7.796875 -2.914062 7.046875 -2.914062 C 5.808594 -2.914062 5.53125 -3.640625 5.53125 -3.878906 C 5.53125 -4.074219 5.570312 -4.273438 5.828125 -4.292969 L 9.863281 -4.746094 C 10.828125 -4.84375 11.339844 -5.433594 11.339844 -6.457031 C 11.339844 -8.03125 9.824219 -10.257812 6.042969 -10.257812 C 2.71875 -10.257812 0.195312 -8.171875 0.195312 -4.960938 C 0.195312 -2.164062 2.460938 0.257812 5.964844 0.257812 Z M 5.769531 -5.492188 C 5.316406 -5.433594 5.277344 -5.671875 5.277344 -6.242188 C 5.277344 -7.421875 5.628906 -7.777344 6.042969 -7.777344 C 6.714844 -7.777344 6.910156 -6.734375 6.910156 -6.300781 C 6.910156 -5.828125 6.851562 -5.628906 6.515625 -5.589844 Z M 5.769531 -5.492188 "/></g></g></g><g fill="rgb(6.269836%, 46.669006%, 48.239136%)" fill-opacity="1"><g transform="translate(67.817184, 28.618193)"><g><path d="M 6.082031 0.257812 C 9.804688 0.257812 12.582031 -1.199219 12.582031 -4.132812 C 12.582031 -7.265625 10.179688 -8.210938 8.308594 -8.996094 C 7.148438 -9.488281 6.183594 -9.902344 6.183594 -10.75 C 6.183594 -11.105469 6.476562 -11.398438 6.832031 -11.398438 C 7.304688 -11.398438 7.777344 -11.222656 8.210938 -10.414062 C 8.800781 -9.332031 9.449219 -8.917969 10.277344 -8.917969 C 11.339844 -8.917969 11.851562 -9.726562 11.851562 -10.550781 C 11.851562 -11.003906 11.714844 -11.417969 11.496094 -11.792969 C 11.28125 -12.148438 10.964844 -12.460938 10.59375 -12.738281 C 9.410156 -13.585938 7.617188 -14.039062 6.082031 -14.039062 C 2.578125 -14.039062 0.707031 -12.207031 0.707031 -9.804688 C 0.707031 -6.851562 2.695312 -5.964844 4.351562 -5.21875 C 5.511719 -4.6875 6.515625 -4.214844 6.515625 -3.109375 C 6.515625 -2.617188 6.242188 -2.324219 5.628906 -2.324219 C 4.785156 -2.324219 4.332031 -2.777344 3.976562 -3.445312 C 3.230469 -4.863281 2.597656 -5.097656 1.792969 -5.097656 C 0.707031 -5.097656 0.0976562 -4.332031 0.0976562 -3.308594 C 0.0976562 -2.835938 0.214844 -2.402344 0.433594 -2.007812 C 0.707031 -1.535156 1.121094 -1.140625 1.652344 -0.828125 C 2.816406 -0.0976562 4.46875 0.257812 6.082031 0.257812 Z M 6.082031 0.257812 "/></g></g></g><g fill="rgb(6.269836%, 46.669006%, 48.239136%)" fill-opacity="1"><g transform="translate(82.993506, 28.618193)"><g><path d="M 5.078125 0.234375 C 7.167969 0.234375 8.957031 -0.925781 9.15625 -2.558594 C 9.253906 -3.386719 8.582031 -3.660156 7.855469 -3.386719 C 7.558594 -3.269531 7.1875 -3.167969 6.96875 -3.167969 C 6.378906 -3.167969 6.082031 -3.601562 6.082031 -4.214844 L 6.082031 -6.96875 C 6.082031 -7.421875 6.359375 -7.597656 6.714844 -7.597656 L 7.914062 -7.597656 C 8.542969 -7.597656 9.015625 -8.25 9.015625 -9.15625 C 9.015625 -9.863281 8.664062 -10.019531 8.152344 -10.019531 L 6.59375 -10.019531 C 6.101562 -10.019531 6.042969 -10.101562 6.042969 -11.28125 L 6.042969 -12.148438 C 6.042969 -12.855469 6.003906 -13.347656 4.882812 -13.347656 C 4.171875 -13.347656 3.40625 -13.011719 2.695312 -12.5 C 1.96875 -11.988281 1.261719 -11.320312 0.75 -10.570312 L 0.433594 -10.121094 C 0.0585938 -9.566406 -0.117188 -8.976562 -0.117188 -8.484375 C -0.117188 -7.835938 0.136719 -7.558594 0.609375 -7.558594 L 0.726562 -7.558594 C 1.121094 -7.558594 1.179688 -7.285156 1.179688 -6.988281 L 1.179688 -3.308594 C 1.179688 -0.707031 2.71875 0.234375 5.078125 0.234375 Z M 5.078125 0.234375 "/></g></g></g><g fill="rgb(6.269836%, 46.669006%, 48.239136%)" fill-opacity="1"><g transform="translate(94.804106, 28.618193)"><g><path d="M 6.632812 0.257812 C 10.472656 0.257812 12.992188 -1.832031 12.992188 -5.019531 C 12.992188 -8.191406 10.472656 -10.277344 6.632812 -10.277344 C 2.738281 -10.277344 0.195312 -8.191406 0.195312 -5.019531 C 0.195312 -1.832031 2.738281 0.257812 6.632812 0.257812 Z M 6.890625 -2.246094 C 5.53125 -2.246094 5.296875 -4.726562 5.296875 -6.121094 C 5.296875 -7.421875 5.808594 -7.777344 6.300781 -7.777344 C 7.660156 -7.777344 7.894531 -5.375 7.894531 -3.917969 C 7.894531 -2.578125 7.382812 -2.246094 6.890625 -2.246094 Z M 6.890625 -2.246094 "/></g></g></g><g fill="rgb(6.269836%, 46.669006%, 48.239136%)" fill-opacity="1"><g transform="translate(110.452806, 28.618193)"><g><path d="M 2.757812 0.136719 L 4.527344 0.136719 C 6.417969 0.136719 7.046875 -0.0585938 7.046875 -1.101562 C 7.046875 -1.574219 6.871094 -1.910156 6.515625 -2.164062 C 6.203125 -2.402344 6.101562 -3.089844 6.101562 -4.429688 L 6.101562 -4.605469 C 6.101562 -5.589844 6.300781 -6.632812 6.632812 -6.632812 C 6.753906 -6.632812 6.851562 -6.59375 6.851562 -6.398438 C 6.851562 -5.335938 7.738281 -4.644531 8.820312 -4.644531 C 10.039062 -4.644531 10.847656 -5.769531 10.847656 -7.460938 C 10.847656 -9.527344 9.566406 -10.277344 8.347656 -10.277344 C 6.554688 -10.277344 5.886719 -8.109375 5.648438 -8.109375 C 5.550781 -8.109375 5.53125 -8.289062 5.53125 -8.445312 L 5.53125 -9.09375 C 5.53125 -10.121094 5.039062 -10.140625 4.585938 -10.140625 C 3.1875 -10.140625 1.890625 -10.058594 1.0625 -9.585938 C 0.589844 -9.3125 0.195312 -8.976562 0.195312 -8.289062 C 0.195312 -7.738281 0.433594 -7.5 0.789062 -7.226562 C 1.0625 -7.007812 1.179688 -6.4375 1.179688 -5.90625 L 1.179688 -4.410156 C 1.179688 -3.089844 1.082031 -2.402344 0.769531 -2.164062 C 0.414062 -1.910156 0.234375 -1.574219 0.234375 -1.101562 C 0.234375 -0.0585938 0.847656 0.136719 2.757812 0.136719 Z M 2.757812 0.136719 "/></g></g></g><g fill="rgb(6.269836%, 46.669006%, 48.239136%)" fill-opacity="1"><g transform="translate(123.759277, 28.618193)"><g><path d="M 5.964844 0.257812 C 9.332031 0.257812 10.984375 -1.613281 10.984375 -2.875 C 10.984375 -3.5625 10.59375 -3.996094 10.058594 -3.996094 C 9.785156 -3.996094 9.46875 -3.859375 9.136719 -3.601562 C 8.78125 -3.328125 7.796875 -2.914062 7.046875 -2.914062 C 5.808594 -2.914062 5.53125 -3.640625 5.53125 -3.878906 C 5.53125 -4.074219 5.570312 -4.273438 5.828125 -4.292969 L 9.863281 -4.746094 C 10.828125 -4.84375 11.339844 -5.433594 11.339844 -6.457031 C 11.339844 -8.03125 9.824219 -10.257812 6.042969 -10.257812 C 2.71875 -10.257812 0.195312 -8.171875 0.195312 -4.960938 C 0.195312 -2.164062 2.460938 0.257812 5.964844 0.257812 Z M 5.769531 -5.492188 C 5.316406 -5.433594 5.277344 -5.671875 5.277344 -6.242188 C 5.277344 -7.421875 5.628906 -7.777344 6.042969 -7.777344 C 6.714844 -7.777344 6.910156 -6.734375 6.910156 -6.300781 C 6.910156 -5.828125 6.851562 -5.628906 6.515625 -5.589844 Z M 5.769531 -5.492188 "/></g></g></g></svg>