<?xml version="1.0" encoding="utf-8"?>
<!-- Generator: Adobe Illustrator 19.0.0, SVG Export Plug-In . SVG Version: 6.00 Build 0)  -->
<svg version="1.1" id="Layer_1" xmlns="http://www.w3.org/2000/svg" xmlns:xlink="http://www.w3.org/1999/xlink" x="0px" y="0px"
	 viewBox="-229 198.5 500 164.5" style="enable-background:new -229 198.5 500 164.5;" xml:space="preserve">
<style type="text/css">
	.st0{fill:none;stroke:#293D60;stroke-width:0.25;stroke-miterlimit:10;}
	.st1{fill:#F79E1B;}
	.st2{fill:#EB001B;}
	.st3{fill:#FF5F00;}
	.st4{fill:#253B80;}
	.st5{fill:#179AD6;}
	.st6{fill:#1D347B;}
	.st7{fill:#283076;}
	.st8{fill:#12A9E5;}
	.st9{fill:#2C619E;}
	.st10{fill:#00579E;}
	.st11{fill:#00579F;}
	.st12{fill:#669AC5;}
	.st13{fill:#F9A51A;}
	.st14{fill:#3278A6;}
	.st15{fill:#293D60;}
	.st16{enable-background:new    ;}
</style>
<title>Artboard 27</title>
<g>
	<path class="st0" d="M-63.5,205.2h74.6c3.5,0,6.4,2.9,6.4,6.4V235c0,3.5-2.9,6.4-6.4,6.4h-74.6c-3.5,0-6.4-2.9-6.4-6.4v-23.4
		C-69.9,208.1-67.1,205.2-63.5,205.2z"/>
	<path class="st1" d="M-26.7,212.8c0.4-0.4,0.9-0.7,1.4-1c1.5-0.9,3.2-1.5,4.9-1.8c1-0.1,2-0.2,3-0.1c1.8,0.1,3.5,0.6,5.1,1.4
		c3.6,1.8,6.2,5.1,7.1,9c0.3,1.3,0.4,2.7,0.3,4c-0.4,6-4.7,11-10.6,12.3c-1.2,0.3-2.5,0.4-3.7,0.3c-2.7-0.2-5.3-1.1-7.4-2.8
		c-0.1,0-0.1,0-0.1-0.1l0,0h0.1l0.7-0.6c0.6-0.5,1.1-1.1,1.5-1.7c0.6-0.8,1.1-1.6,1.5-2.5c0.3-0.6,0.6-1.3,0.8-2
		c0.3-0.9,0.4-1.8,0.5-2.7v-1.4c0-0.4,0-0.9-0.1-1.3c0-0.4-0.1-0.9-0.2-1.3c-0.3-1.3-0.7-2.5-1.3-3.6c-0.6-0.9-1.2-1.8-1.9-2.6
		c-0.4-0.5-0.8-0.9-1.3-1.3L-26.7,212.8z"/>
	<path class="st2" d="M-26.8,234c-1,0.8-2.1,1.4-3.2,1.9c-1.2,0.5-2.5,0.8-3.8,0.9c-3.7,0.4-7.3-0.7-10.1-3.2
		c-2.3-1.9-3.8-4.5-4.4-7.4c-0.3-1.3-0.4-2.7-0.3-4c0.5-5.3,4.1-9.9,9.1-11.6c1.1-0.4,2.2-0.6,3.4-0.7c3.3-0.2,6.5,0.7,9.1,2.7
		c0.1,0,0.2,0.1,0.2,0.2l0,0l-0.8,0.7l-0.9,0.9l-0.3,0.4c-0.5,0.6-0.9,1.2-1.3,1.8c-0.4,0.7-0.8,1.5-1.1,2.3
		c-0.3,0.9-0.5,1.8-0.6,2.8c0,0.3-0.1,0.7-0.1,1v1.6c0.1,0.4,0.1,0.8,0.1,1.2c0.1,0.7,0.3,1.3,0.5,2c0.3,0.8,0.6,1.6,1.1,2.4
		c0.3,0.6,0.6,1.1,1,1.6l0.9,1.1c0.3,0.4,0.7,0.7,1.1,1C-27,233.8-26.8,233.8-26.8,234z"/>
	<path class="st3" d="M-26.8,234c-0.1-0.2-0.3-0.2-0.4-0.4c-0.4-0.3-0.8-0.6-1.1-1l-0.9-1.1c-0.4-0.5-0.7-1-1-1.6
		c-0.5-0.8-0.8-1.6-1.1-2.4c-0.2-0.7-0.4-1.3-0.5-2c0-0.4,0-0.8-0.1-1.2v-1.6c0-0.3,0.1-0.7,0.1-1c0.1-1,0.3-1.9,0.6-2.8
		c0.3-0.8,0.7-1.6,1.1-2.3c0.4-0.6,0.8-1.2,1.3-1.8l0.3-0.4l0.9-0.9l0.8-0.7h0.1l0.3,0.2c0.5,0.4,0.9,0.8,1.3,1.3
		c0.7,0.8,1.3,1.7,1.9,2.6c0.6,1.1,1,2.3,1.3,3.6c0.1,0.4,0.2,0.9,0.2,1.3c0.1,0.4,0.1,0.9,0.1,1.3v1.3c-0.1,0.9-0.2,1.8-0.5,2.7
		c-0.2,0.7-0.5,1.4-0.8,2c-0.4,0.9-0.9,1.7-1.5,2.5c-0.4,0.6-0.9,1.2-1.5,1.7l-0.7,0.6L-26.8,234L-26.8,234z"/>
</g>
<g>
	<path class="st0" d="M30.3,205.2h74.6c3.5,0,6.4,2.9,6.4,6.4V235c0,3.5-2.9,6.4-6.4,6.4H30.3c-3.5,0-6.4-2.9-6.4-6.4v-23.4
		C24,208.1,26.8,205.2,30.3,205.2z"/>
	<path class="st4" d="M55.7,234.6c-0.3,0-0.5-0.3-0.4-0.6c0-0.1,0-0.1,0-0.1c0-0.6,0.1-1.2,0.2-1.8c0.3-1.7,0.5-3.4,0.7-5.1
		c0.1-0.5,0.2-0.9,0.2-1.4c0.2-0.1,0.1-0.2,0.1-0.2l0,0c0.1-0.2,0.2-0.4,0.1-0.6l0,0c0.1-0.2,0.2-0.5,0.1-0.7l0,0
		c0.1,0,0.1-0.1,0-0.2l0.3-2.2l0.6-4.2c0.2,0,0.1-0.1,0.1-0.2l0,0c0.1-0.2,0.1-0.4,0.1-0.6l0,0c0.1-0.2,0.1-0.5,0.1-0.7l0,0
		c0.1-0.1,0.1-0.4,0-0.5H58c0.1-0.1,0.1-0.2,0-0.3l0,0v-0.5c0.1-0.1,0.1-0.4,0-0.5h0.1c0.1-0.2,0.1-0.4,0-0.6h0.1
		c0.1-0.2,0.1-0.4,0-0.6l0,0c0.2-0.1,0.2-0.2,0.1-0.3l0.3-2.5c0.1-0.2,0.3-0.4,0.5-0.4h10.1c4.1,0.1,7.6,3.1,8.2,7.2
		c0.1,0.7,0.1,1.3,0,2c0,0.5-0.1,0.9-0.2,1.4c-0.7,2.4-2.4,4.3-4.6,5.3c-0.9,0.5-2,0.7-3,0.7h-5.9v-0.7c-0.1,0.4-0.2,0.7-0.2,1.1
		c-0.2,1-0.3,2-0.4,3s-0.3,2.3-0.5,3.4s-0.1,0.9-0.2,1.4h-1.2c0-0.1-0.1-0.1-0.2-0.1L55.7,234.6L55.7,234.6z"/>
	<path class="st5" d="M69.7,225.4c1,0,2.1-0.2,3-0.7c2.2-1,3.9-2.9,4.6-5.3c0.1-0.5,0.2-0.9,0.2-1.4c1.5,1,2.4,2.6,2.7,4.3
		c0.6,3.8-1.9,7.3-5.7,7.9l-1.4,0.2h-4.3c-0.2,0-0.3,0-0.3,0.2l-0.6,4.3l-0.3,2.4c0,0.3-0.3,0.5-0.6,0.5h-5.6
		c-0.3,0-0.5-0.2-0.5-0.5v-0.1c0.1-0.9,0.3-1.7,0.4-2.6h0.1c0.4,0.1,0.7,0.1,1.1,0c0.1-0.5,0.1-0.9,0.2-1.4s0.3-2.2,0.5-3.4
		s0.2-2,0.4-3c0-0.4,0.1-0.7,0.2-1.1c0-0.1,0.2-0.2,0.3-0.2h5.6L69.7,225.4z"/>
	<path class="st6" d="M57.8,215.5c0,0.2,0,0.5-0.1,0.7L57.8,215.5z"/>
	<path class="st6" d="M56.7,223.9c0.1,0.2,0,0.5-0.1,0.7L56.7,223.9z"/>
	<path class="st6" d="M57.7,216.3c0,0.2,0,0.4-0.1,0.6L57.7,216.3z"/>
	<path class="st6" d="M56.6,224.7c0.1,0.2,0,0.4-0.1,0.6L56.6,224.7z"/>
	<path class="st6" d="M58.2,212.1c0.1,0.2,0.1,0.4,0,0.6V212.1z"/>
	<path class="st6" d="M58.2,212.8c0.1,0.2,0.1,0.4,0,0.6V212.8z"/>
	<path class="st6" d="M57.8,214.9c0.1,0.1,0.1,0.4,0,0.5V214.9z"/>
	<path class="st6" d="M58.1,213.5c0.1,0.1,0.1,0.4,0,0.5V213.5z"/>
	<path class="st6" d="M58.3,211.7c0.1,0.1,0.1,0.2-0.1,0.3S58.3,211.8,58.3,211.7z"/>
	<path class="st6" d="M58,214.5c0.1,0.1,0.1,0.2,0,0.3l0,0V214.5z"/>
	<path class="st6" d="M57.7,217c0,0.1,0.1,0.2-0.1,0.2S57.6,217,57.7,217z"/>
	<path class="st6" d="M56.7,223.6c0.1,0.1,0.1,0.2,0,0.2V223.6z"/>
	<path class="st6" d="M56.5,225.4c0,0,0.1,0.1-0.1,0.2C56.1,225.7,56.3,225.4,56.5,225.4z"/>
	<path class="st7" d="M63.7,225.5h5.9c-0.1,0-0.2-0.1-0.2,0H63.7z"/>
	<path class="st8" d="M63.7,225.5H64c-0.1,0-0.3,0.1-0.3,0.2V225.5z"/>
	<path class="st9" d="M63.7,225.5"/>
	<path class="st9" d="M69.7,225.5h-0.2C69.4,225.4,69.6,225.5,69.7,225.5z"/>
</g>
<g>
	<path class="st0" d="M124.8,205.2h74.6c3.5,0,6.4,2.9,6.4,6.4V235c0,3.5-2.9,6.4-6.4,6.4h-74.6c-3.5,0-6.4-2.9-6.4-6.4v-23.4
		C118.4,208.1,121.3,205.2,124.8,205.2z"/>
	<path class="st10" d="M196.6,234.6h-5.2c-0.1,0-0.1,0-0.1-0.1c0-0.1-0.5-2.1-0.7-3.1H183c-0.4,1-0.7,2.1-1.1,3.1s-0.1,0.1-0.2,0.1
		h-5.9c0-0.2,0.1-0.3,0.2-0.5l8.4-20c0.2-0.7,0.7-1.2,1.3-1.5c0.4-0.2,0.9-0.3,1.4-0.3h4.7c0.1,0,0.1,0.1,0.1,0.2l0.6,2.7
		c0.4,2.2,0.9,4.4,1.3,6.6l1.5,6.9L196.6,234.6L196.6,234.6L196.6,234.6z M184.7,226.7h4.7c0.1,0,0.1,0,0.1-0.1l0,0l-1.5-7.5
		c-0.1-0.3-0.1-0.5-0.2-0.8L184.7,226.7z"/>
	<path class="st11" d="M172.7,211.8h0.4c1.3,0.1,2.6,0.4,3.9,0.8v0.2c-0.2,1.6-0.5,3.1-0.7,4.6h-0.1l-0.4-0.2
		c-1.6-0.7-3.4-1-5.1-0.8c-0.6,0-1.2,0.2-1.8,0.5c-0.5,0.3-0.8,0.8-0.8,1.3c0,0.3,0,0.6,0.2,0.8c0.2,0.3,0.6,0.6,0.9,0.8
		c0.7,0.5,1.5,0.9,2.3,1.3c1,0.5,1.9,1.1,2.8,1.8c0.8,0.7,1.4,1.7,1.7,2.8c0.2,0.8,0.2,1.6,0.1,2.4c-0.3,2.4-1.9,4.4-4.1,5.4
		c-1.1,0.6-2.3,0.9-3.5,1.1c-0.9,0.1-1.9,0.2-2.8,0.1c-1.8,0-3.7-0.3-5.4-0.9l-0.6-0.2l0,0c0.2-1.5,0.4-2.9,0.7-4.4
		c0-0.2,0-0.4,0.1-0.6l1,0.5c0.9,0.4,2,0.8,3,0.9c1.1,0.2,2.1,0.3,3.2,0.1c0.6-0.1,1.2-0.3,1.7-0.7c0.8-0.5,0.9-1.6,0.4-2.4
		c-0.1-0.1-0.1-0.2-0.2-0.2l-0.4-0.4c-0.6-0.4-1.2-0.7-1.8-1l-2.6-1.5c-0.6-0.5-1.2-1.1-1.7-1.7c-0.8-1-1.1-2.2-1-3.4
		c0.1-1.5,0.7-3,1.7-4.1c0.8-0.9,1.8-1.5,2.9-2c1.4-0.6,2.8-0.9,4.3-0.9L172.7,211.8L172.7,211.8z"/>
	<path class="st12" d="M171.7,211.8L171.7,211.8z"/>
	<path class="st10" d="M139.2,224.3l0.6,3.1h0.1c1.2-3.2,2.5-6.5,3.7-9.8c0.6-1.7,1.2-3.4,1.9-5.1l0.2-0.2h5.8c0.1,0,0.1,0,0.1,0.2
		l-9,22.1c0,0.1-0.1,0.1-0.2,0.1h-5.8c-0.1,0-0.2,0-0.2-0.2c-0.9-3.3-1.8-6.6-2.6-9.9c-0.8-3.3-1.7-6.1-2.5-9.2h0.1l1.9,1.3
		c2.2,1.7,4,3.8,5.3,6.3L139.2,224.3z"/>
	<path class="st10" d="M153.2,234.6h-2.7c-0.1,0-0.1,0-0.1-0.1l0.9-5.9c0.4-2.2,0.7-4.4,1.1-6.6s0.8-4.7,1.1-7.1
		c0.2-0.8,0.3-1.7,0.5-2.5c0.2-0.8,0-0.2,0.1-0.2h5.5c0.1,0,0.2,0.1,0.2,0.2l0,0c-0.4,2.1-0.7,4.2-1.1,6.3c-0.4,2.1-0.7,4.6-1.1,6.9
		c-0.4,2.3-0.6,3.9-1,5.9s-0.3,2-0.4,3s-0.1,0.1-0.2,0.1H153.2z"/>
	<path class="st13" d="M139.2,224.3l-0.6-1.5c-1.3-2.5-3.1-4.6-5.3-6.3l-1.9-1.3h-0.1l-2-1.1c-1.3-0.6-2.6-1-4-1.4h-0.1
		c0.1-0.4,0.1-0.4,0.4-0.4h8.9l1,0.2c0.9,0.1,1.6,0.8,1.7,1.7c0.4,2.2,0.9,4.3,1.3,6.4c0.4,2.1,0.4,2.4,0.7,3.6V224.3z"/>
	<path class="st10" d="M135.3,215.2"/>
</g>
<g>
	<path class="st0" d="M-157.4,205.2h74.6c3.5,0,6.4,2.9,6.4,6.4V235c0,3.5-2.9,6.4-6.4,6.4h-74.6c-3.5,0-6.4-2.9-6.4-6.4v-23.4
		C-163.9,208.1-160.9,205.2-157.4,205.2z"/>
	<polygon class="st14" points="-108.4,218 -108.4,221 -103.3,221 -103.3,224.1 -108.4,224.1 -108.4,227.4 -102.7,227.4 -98.3,222.7 
		-101.9,218 	"/>
	<path class="st14" d="M-81.2,212.3h-11.4l-3,3l-2.7-3.3h-24.8l-3.1,6l-2.7-6h-10.7v4l-2.4-4h-8.4l-9,21.8h10.1l1.6-4h3.4l1.7,4
		h12.4v-1.3l0.7,1.3h6.7l1-1.3v1.3h22.2l3.7-4l3,4h11.7l-8.4-11.1L-81.2,212.3z M-115.1,230.8h-4.4V219l-5,11.8h-3l-5.4-11.8v11.8
		h-7.7l-1.7-4.1h-7.4l-1.7,4.1h-4l6.9-16h5l6.4,15.1v-15.2h6.2l4.7,10.7l5.1-10.7h6V230.8z M-86.9,230.8h-4.7l-4.3-5.1l-4.7,5.1
		h-11.8v-16.1h12.4l4.2,5.2l4.4-5.1h4.9l-6.8,8L-86.9,230.8z"/>
	<polygon class="st14" points="-148.4,223.2 -143.4,223.2 -146.2,217.8 	"/>
</g>
<path class="st15" d="M-136.6,298.9l-1.8-4.6c0-0.3-0.3-0.5-0.6-0.5l-0.7,0.2l-2.6,4.3c-0.1,0.2-0.1,0.4-0.1,0.6
	c0.1,0.2,0.2,0.4,0.4,0.5c0.2,0.1,0.4,0.2,0.6,0.1c0.2,0,0.4-0.1,0.5-0.3l0.6-1.1c-0.7,4.6-2.6,8.9-5.5,12.5l-0.8,0.9
	c-0.1-2.1-0.6-4.2-2.2-5.4c-1.9-1.3-4-2.5-6.1-3.4l-2.7-2.9c-0.2-0.2-0.4-0.3-0.6-0.3c-0.3,0-0.5,0.2-0.6,0.4l-7.5,11.7l-7.1-11.7
	c-0.1-0.2-0.3-0.3-0.5-0.4l-0.7,0.2l-3.1,3.2l-5.1,2.9c-2.3,1.3-2.9,3.9-3,5.7c-2.5-2.9-4.4-6.4-5.5-10.1v-0.3h-0.3
	c-0.9,0.2-1,0.3-1.1,0.4v0.2l0,0c1.6,5.4,4.8,10.2,9.2,13.8c4.9,4,11.1,6.2,17.4,6.2c8.4,0,16.4-3.8,21.7-10.3
	c3.1-3.9,5.1-8.6,5.9-13.5l0.5,1.3c0,0.2,0.2,0.4,0.4,0.5h0.6c0.2-0.1,0.3-0.2,0.4-0.4C-136.6,299.2-136.6,299-136.6,298.9z
	 M-177.2,313.9c0.4,0,0.8-0.4,0.8-0.8v-9.3l2.2-2.3l7.2,12c0.2,0.2,0.4,0.4,0.7,0.4l0.7-0.4l7.5-11.9l2.2,2.3l0.2,0.2
	c2.1,0.9,4.1,2,6,3.2c1.4,1.1,1.5,3.3,1.7,5.7c-9.5,9.1-24.3,9.8-34.6,1.5l-1.6-1.4l0,0c0-0.1-0.5-4.3,2.2-5.9l4-2.3v8.3
	C-177.9,313.6-177.6,313.9-177.2,313.9z"/>
<path class="st15" d="M-190,290.2c0.1-0.2,0.1-0.4,0.1-0.6c-0.1-0.2-0.2-0.4-0.4-0.5h-0.6c-0.2,0.1-0.4,0.2-0.5,0.4l-0.7,1
	c0.7-4.7,2.6-9.2,5.6-12.9c9.2-11.2,25.8-12.9,37-3.7c4.2,3.5,7.2,8.1,8.7,13.4v0.4h0.4c0.9-0.2,1-0.2,1.1-0.4l0,0v-0.2
	c-1.5-5.8-4.8-10.9-9.4-14.6c-11.9-9.7-29.4-7.8-39.1,4.1c-3.2,4-5.2,8.8-5.9,13.8l-0.5-1.3c0-0.2-0.2-0.4-0.4-0.5h-0.6
	c-0.2,0.1-0.4,0.2-0.4,0.4c-0.1,0.2-0.1,0.4-0.1,0.6l1.7,4.6c0.1,0.3,0.4,0.5,0.7,0.5h0.1l0.6-0.2L-190,290.2z"/>
<path class="st15" d="M-177,286.8c-0.5,0.7-0.6,1.6-0.4,2.4v0.6c0.4,1.9,0.7,3.9,2.8,4.3c0.5,1.1,1.1,2.2,1.8,3.2
	c1.9,2.5,4.1,3.8,6.6,3.8c2.7-0.1,5.2-1.5,6.6-3.8c0.8-1,1.4-2,1.8-3.2l1.3-0.6c1-1.2,1.6-2.7,1.5-4.3c0.1-0.9-0.1-1.8-0.6-2.6
	l-0.5-0.4c0.2-1,0.3-2.1,0.2-3.1c-0.1-2.5-1.7-4.8-4.1-5.6h-0.6c-0.2,0.1-0.4,0.2-0.4,0.4c-0.1,0.2-0.1,0.4,0,0.6s0.2,0.3,0.4,0.4
	c1.8,0.6,3.1,2.3,3.2,4.3c0,1.1-0.1,2.2-0.3,3.3c-0.1,0.2,0,0.4,0.1,0.6s0.3,0.4,0.6,0.4h0.2c0.3,0.3,0.3,1,0.3,1.5
	c-0.1,2.1-0.7,2.9-1,3.2c-0.2,0.2-0.4,0.3-0.7,0.3s-0.7,0.2-0.8,0.5c-0.1,0.1-2.3,6.4-7.2,6.4c-2.2-0.1-4.2-1.2-5.3-3.1
	c-0.8-1-1.4-2.1-1.8-3.3c-0.1-0.3-0.4-0.5-0.7-0.5c-1.2-0.1-1.5-0.9-1.8-3.1v-0.5c-0.1-0.6-0.1-1,0.1-1.2c0.2-0.2,0.4-0.4,0.7-0.5
	c0.2,0,0.4-0.1,0.5-0.3c0.2-0.2,0.2-0.5,0.1-0.7c-0.9-2.9-0.7-5.3,0.7-7.1c1.7-1.9,4.1-3.1,6.6-3.2h6.8c0.4,0,0.8-0.4,0.8-0.8
	s-0.4-0.8-0.8-0.8h-6.9c-3.1,0.2-5.9,1.6-7.9,3.9c-1.5,2.3-2,5.2-1.1,7.8C-176.5,286.2-176.8,286.5-177,286.8z"/>
<path class="st15" d="M-169.3,280.2c-0.1-0.4-0.4-0.8-0.9-0.7l0,0c-0.4,0.1-0.7,0.5-0.6,0.9c0.1,0.8,1,2.3,3.4,2.3h4.6
	c0.7,0,1.4,0.4,1.7,1.1c0.1,0.3,0.4,0.5,0.7,0.5h0.3c0.2-0.1,0.3-0.2,0.4-0.4c0.1-0.2,0.1-0.4,0-0.6c-0.5-1.3-1.7-2.1-3.1-2.1h-4.6
	C-169,281.1-169.3,280.2-169.3,280.2z"/>
<path class="st15" d="M-155.4,313.9c0.4,0.1,0.7-0.2,0.8-0.6c0-0.1,0-0.1,0-0.2v-4.9c0-0.4-0.4-0.8-0.8-0.8l0,0
	c-0.4,0.1-0.7,0.4-0.7,0.8v4.9C-156.2,313.5-155.9,313.8-155.4,313.9C-155.5,313.9-155.4,313.9-155.4,313.9z"/>
<path class="st15" d="M-155.4,307c0.4,0,0.8-0.4,0.8-0.8l0,0v-0.6c0.1-0.4-0.2-0.7-0.6-0.8c-0.1,0-0.1,0-0.2,0
	c-0.4,0-0.7,0.3-0.7,0.7v0.1v0.6C-156.1,306.6-155.8,306.9-155.4,307z"/>
<path class="st15" d="M234.8,298.9l-1.7-4.6c-0.2-0.3-0.4-0.5-0.7-0.5l-0.7,0.2l-2.6,4.3c-0.1,0.2-0.1,0.4,0,0.6
	c0,0.2,0.1,0.4,0.3,0.5c0.2,0.1,0.4,0.2,0.6,0.1c0.2,0,0.4-0.1,0.5-0.3l0.7-1.1c-0.7,4.6-2.6,8.9-5.5,12.5l-1,1.1l-0.4-1.2
	c-1.2-3.4-3.2-4.2-3.9-4.5s-4.4-1.4-5.3-1.7h-0.2l-2.5-1.6c-0.2-0.2-0.6-0.2-0.8,0l-6.1,3.9l-5.6-3.6l0.5-2c0.1-0.4-0.1-0.9-0.5-1
	h-0.6c-0.2,0.1-0.3,0.3-0.4,0.5l-0.6,2.2h-0.1l-2.1,1.3l-0.4,0.2l-5.2,1.7c-0.7,0.3-2.7,1.1-3.9,4.5l-0.5,1.5c-2.8-3-4.8-6.7-6-10.6
	V301h-0.3c-0.9,0.2-1,0.3-1,0.4v0.2l0,0c1.6,5.4,4.8,10.2,9.2,13.8c4.9,4,11.1,6.2,17.5,6.2c7.3,0,14.3-2.9,19.5-8l0.3-0.3l1.8-2
	c3.1-3.9,5.2-8.6,5.9-13.5l0.5,1.3c0.1,0.2,0.2,0.4,0.4,0.5h0.6c0.2-0.1,0.4-0.2,0.5-0.4C234.8,299.3,234.9,299,234.8,298.9z
	 M187.3,313.2l0.8-2.2c1-2.7,2.5-3.4,3-3.6l4.9-1.5l5.5,5.4c0.3,0.2,0.8,0.2,1.1-0.1l1.7-1.7c0.2-0.1,0.3-0.3,0.3-0.5
	c0-0.2-0.1-0.4-0.3-0.6c-0.3-0.3-0.7-0.3-1,0l0,0l-1.2,1.2l-4.6-4.5l1.5-0.9l6,3.8l3,3.2c0.2,0.2,0.4,0.3,0.6,0.3l0.5-0.2l5.7-5.5
	l5,1.6c0.5,0.2,2.1,0.9,3,3.6l0.7,1.9c-9.5,9.2-24.4,9.9-34.7,1.6l0,0L187.3,313.2z M208.6,309.6l-1.9-2.1l5.3-3.3l1.4,0.9
	L208.6,309.6z"/>
<path class="st15" d="M181.4,290.2c0.2-0.4,0.1-0.9-0.3-1.1l0,0h-0.6c-0.2,0.1-0.4,0.2-0.5,0.4l-0.7,1.1c0.7-4.7,2.6-9.2,5.6-12.9
	c9.2-11.2,25.8-12.9,37-3.7c4.2,3.5,7.2,8.1,8.7,13.4v0.4h0.3c0.9-0.2,1-0.2,1.1-0.4h0.1v-0.2c-1.4-5.8-4.7-11-9.4-14.7
	c-12-9.6-29.5-7.8-39.1,4.2c-3.2,3.9-5.2,8.7-5.9,13.7l-0.4-1.3l-0.5-0.5h-0.6c-0.4,0.1-0.6,0.5-0.5,0.9c0,0,0,0.1,0.1,0.1l1.6,4.6
	c0.1,0.3,0.4,0.5,0.7,0.5h0.1l0.6-0.2L181.4,290.2z"/>
<path class="st15" d="M198.1,287.8L198.1,287.8c-0.4-0.1-0.8,0.3-0.9,0.7c-0.1,3.1,0.8,6.2,2.7,8.7l0.6,0.2h0.5l0.3-0.6
	c0-0.2-0.1-0.4-0.2-0.5c-1.6-2.2-2.4-4.9-2.3-7.6C198.9,288.3,198.6,287.9,198.1,287.8L198.1,287.8z"/>
<path class="st15" d="M202.1,284.4c1.3,1.7,3.9,1.7,5.8,1.7h1.9c1,0.2,1.8,0.9,2.1,1.9c0.5,2.9-0.3,5.9-2.2,8.2
	c-0.1,0.1-0.2,0.3-0.2,0.5l0.3,0.6h0.5c0.2,0,0.5,0,0.6-0.2c0.7-0.8,1.2-1.7,1.6-2.7c1-2.2,1.3-4.6,0.9-6.9c-0.4-1.6-1.7-2.8-3.3-3
	h-2.2c-2.2,0-4.5,0.1-4.9-1.9c-0.1-0.3-0.4-0.5-0.7-0.6c-0.3,0-0.7,0.2-0.8,0.5c-0.6,1.3-2,2.1-3.4,2c-0.2-0.1-0.4,0-0.6,0.1
	l-0.3,0.5c0,0.2,0.1,0.4,0.2,0.6c0.1,0.2,0.3,0.3,0.5,0.3c1.4,0.2,2.9-0.3,3.9-1.3L202.1,284.4z"/>
<path class="st15" d="M204.7,303.3h1.5c1.1,0,2-0.7,2.4-1.7c2.4-0.3,4.7-1.4,6.3-3.3c1-1.5,1.7-3.2,2-5h1.4c1.9,0,1.9-1.9,1.9-4.1
	c0-2.2-0.3-4-2.3-4h-1c-0.3-1.8-0.9-3.6-1.9-5.2c-2-3.4-5.6-5.4-9.5-5.3c-3.9-0.1-7.6,1.9-9.6,5.2c-1,1.7-1.7,3.5-2,5.4h-1.1
	c-0.5-0.1-1,0.1-1.4,0.4c-0.5,0.6-0.7,1.4-0.7,3.5c0,2.1,0.1,4.2,1.9,4.2h2c0.4-0.1,0.7-0.4,0.7-0.8v-6.1c0.2-2.1,0.8-4,1.9-5.8
	c1.8-2.8,4.9-4.5,8.3-4.4c3.4-0.1,6.5,1.6,8.2,4.5c0.9,1.6,1.6,3.4,1.8,5.2c0,0.4,0.3,0.7,0.7,0.7l0,0h1.7c0.2,0,0.8,0,0.8,2.5
	c0,0.8,0,1.6-0.2,2.4c0,0.1,0,0.1-0.1,0.1l0,0H217c0-1.3-0.1-2.3-0.1-2.4c-0.1-0.4-0.5-0.8-0.9-0.7c-0.4,0.1-0.8,0.5-0.7,0.9l0,0
	c0,0.1,0.7,4.7-1.7,7.8c-1.2,1.6-3,2.5-5,2.7c-0.4-1-1.3-1.7-2.4-1.7h-1.5c-1.4,0-2.5,1.1-2.5,2.5
	C202.2,302.2,203.3,303.3,204.7,303.3L204.7,303.3z M203.8,300.8c0-0.5,0.4-0.9,0.9-1h1.5c0.5,0.1,0.9,0.5,0.9,1s-0.4,0.9-0.9,0.9
	h-1.5C204.2,301.7,203.8,301.3,203.8,300.8L203.8,300.8L203.8,300.8z M193.8,286.9v4.9h-1.3c-0.2-0.9-0.3-1.7-0.2-2.6
	c-0.1-0.8,0-1.6,0.2-2.3H193.8z"/>
<path class="st15" d="M-12.8,298.9l-1.8-4.6c0-0.3-0.3-0.5-0.6-0.5l-0.7,0.2l-2.6,4.3c-0.1,0.2-0.1,0.4-0.1,0.6
	c0.1,0.2,0.2,0.4,0.4,0.5s0.4,0.2,0.6,0.1c0.2,0,0.4-0.1,0.5-0.3l0.6-1.1c-0.6,4.6-2.5,8.9-5.5,12.5c-9.1,11.2-25.6,12.9-36.9,3.8
	c-4.1-3.4-7.2-7.9-8.6-13v-0.3h-0.3c-0.9,0.2-1,0.3-1.1,0.4v0.2l0,0c1.6,5.4,4.8,10.2,9.2,13.8c4.9,4,11.1,6.2,17.4,6.2
	c8.4,0,16.4-3.8,21.7-10.3c3.1-3.9,5.1-8.6,5.9-13.5l0.5,1.3c0,0.2,0.2,0.4,0.4,0.5h0.6c0.2-0.1,0.4-0.2,0.4-0.4
	C-12.8,299.2-12.8,299-12.8,298.9z"/>
<path class="st15" d="M-66.2,290.2c0.2-0.4,0.1-0.9-0.3-1.1l0,0h-0.6c-0.2,0.1-0.4,0.2-0.5,0.4l-0.7,1.1c0.7-4.7,2.6-9.2,5.6-12.9
	c9.2-11.2,25.8-12.9,37-3.7c4.2,3.4,7.2,8.1,8.7,13.3v0.4h0.4c0.9-0.2,1-0.2,1.1-0.4l0,0v-0.2c-1.5-5.8-4.8-10.9-9.4-14.6
	c-11.9-9.7-29.4-7.8-39.1,4.1c-3.2,4-5.2,8.8-5.9,13.8l-0.5-1.3c0-0.2-0.2-0.4-0.4-0.5h-0.6c-0.4,0.2-0.6,0.6-0.5,1l1.7,4.6
	c0.1,0.3,0.4,0.5,0.7,0.5h0.1l0.6-0.2L-66.2,290.2z"/>
<path class="st15" d="M-27.8,302.9l-6,2.6l-1.7,0.6c-1.7,0.8-3.4,1.5-5.2,2c-2.2,0.8-4.6,0.7-6.8-0.1h-0.4c-2-0.7-4.1-1.2-6.2-1.5
	c-0.8,0-3.2,0.5-3.9,0.6c-0.2,0.1-0.4,0.2-0.5,0.4s-0.2,0.4-0.1,0.6c0,0.2,0.2,0.3,0.3,0.5h0.6l3.6-0.7c1.9,0.4,3.8,0.9,5.7,1.5h0.4
	c1.3,0.4,2.7,0.7,4.1,0.7l0,0c1.3,0,2.5-0.2,3.7-0.6c1.9-0.6,3.7-1.3,5.4-2.1l1.5-0.6c1.5-0.5,5.3-2.2,6.2-2.6
	c1.4-0.8,1.9-2.5,1.2-3.9c-0.7-1.4-2.7-2.1-4.6-1.6l-0.7,0.2c0.5-0.5,0.9-1.1,1.2-1.7c1.4-2,2.1-4.4,2.1-6.9
	c0.1-7.2-5.7-13.1-12.8-13.2c-7.2-0.1-13.1,5.7-13.2,12.8c0,2,0.4,4,1.3,5.8c-1.5-0.4-3-0.4-4.5,0.1l-5.2,3
	c-0.4,0.2-0.5,0.7-0.3,1.1l0,0c0.1,0.2,0.3,0.3,0.5,0.4h0.6l5.1-3c0.6-0.3,2.4-0.5,5.1,0.4l1.4,0.6c2.2,1,4.6,1.7,7,2h0.7
	c1.3,0.2,2.1,0.9,2.2,1.6v0.7c0,0.4-0.3,0.7-0.7,0.7c-2.5,0.1-4.9,0-7.4-0.2c-0.2-0.1-0.4,0-0.5,0.1c-0.2,0.2-0.3,0.4-0.3,0.6
	c0,0.2,0,0.4,0.2,0.5c0.1,0.2,0.3,0.3,0.5,0.3l6.3,0.3h1.5c1-0.1,1.7-0.8,1.9-1.8l0.5-0.2l2.9-1l5-1.7c1-0.3,2.2,0,2.9,0.8
	c0.2,0.4,0,0.9,0,1.1C-27.3,302.5-27.6,302.7-27.8,302.9z M-29.5,290.4c0,4.3-2.4,8.2-6.2,10.1l-2.8,1l0,0c-0.6-1.4-1.9-2.4-3.4-2.6
	h-0.8c-2.3-0.2-4.5-0.8-6.6-1.8l-1.1-0.5c-1.2-1.8-1.8-3.9-1.8-6.1c-0.6-6.3,4-11.8,10.3-12.4s11.8,4,12.4,10.3
	C-29.4,289.1-29.4,289.8-29.5,290.4L-29.5,290.4z"/>
<path class="st15" d="M-40.4,287.3c0.8,0,1.5,0.3,2.1,0.8c0.3,0.3,0.8,0.3,1.1,0c0.1-0.1,0.2-0.3,0.2-0.5s0-0.4-0.2-0.5
	c-0.6-0.7-1.4-1.2-2.3-1.3v-1.7c0-0.4-0.4-0.8-0.8-0.8s-0.8,0.4-0.8,0.8l0,0v1.6c-1.8,0.3-3.1,1.4-3.1,2.8c0,1.4,1,2.7,3.6,2.7
	c0.9,0,1.9,0.2,1.9,1.1c0,0.9-0.8,1.2-1.9,1.2c-1,0-2-0.2-2.8-0.8c-0.4-0.2-0.8-0.1-1.1,0.2c-0.1,0.2-0.1,0.4-0.1,0.6
	c0.1,0.2,0.2,0.4,0.4,0.5c0.9,0.6,2,1,3.1,1.1v1.7c0,0.4,0.4,0.8,0.8,0.8s0.8-0.4,0.8-0.8V295c1.3-0.2,2.3-1.4,2.4-2.7
	c0-1.7-1.3-2.7-3.5-2.7c-0.5,0-2-0.1-2-1.1S-41.8,287.3-40.4,287.3z"/>
<path class="st15" d="M-61.1,307.9l-1,0.4c-0.4,0.1-0.6,0.5-0.5,0.8c0,0,0,0,0,0.1c0.1,0.3,0.3,0.6,0.7,0.6h0.2l1.1-0.4
	c0.4-0.1,0.7-0.5,0.7-0.9c-0.1-0.4-0.5-0.7-0.9-0.7C-60.9,307.8-61,307.9-61.1,307.9z"/>
<path class="st15" d="M81.5,308.2L81.5,308.2z"/>
<path class="st15" d="M81.6,308.2"/>
<path class="st15" d="M81.4,308.2"/>
<polygon class="st15" points="81.3,308.5 81.2,308.5 81.5,307.8 "/>
<path class="st15" d="M81.5,308.2"/>
<polygon class="st15" points="81.5,308.6 81.4,308.5 81.5,307.8 "/>
<path class="st15" d="M81.6,308.2L81.6,308.2z"/>
<polygon class="st15" points="81.5,308.6 81.5,307.8 81.7,308.5 "/>
<path class="st15" d="M81.7,308.2L81.7,308.2z"/>
<polygon class="st15" points="81.7,308.5 81.6,307.8 81.6,307.8 81.6,307.8 81.9,308.5 "/>
<path class="st15" d="M111,298.9l-1.8-4.6c0-0.3-0.3-0.5-0.6-0.5l-0.7,0.2l-2.6,4.3c-0.1,0.2-0.1,0.4,0,0.6c0,0.2,0.1,0.4,0.3,0.5
	c0.2,0.1,0.4,0.2,0.6,0.1c0.2,0,0.4-0.1,0.5-0.3l0.7-1.1c-0.7,4.6-2.6,8.9-5.5,12.5c-9.1,11.2-25.6,13-36.9,3.9
	c-4.2-3.4-7.2-7.9-8.7-13.1v-0.3H56c-0.9,0.2-1,0.3-1,0.4v0.2l0,0c1.6,5.4,4.8,10.2,9.2,13.8c4.9,4,11.1,6.2,17.4,6.2
	c8.4,0,16.4-3.8,21.7-10.3c3-3.9,5-8.5,5.7-13.3l0.5,1.3c0.1,0.2,0.2,0.4,0.4,0.5h0.6c0.2-0.1,0.4-0.2,0.5-0.4L111,298.9L111,298.9z
	"/>
<path class="st15" d="M57.6,290.2c0.2-0.4,0.1-0.9-0.3-1.1l0,0h-0.6c-0.2,0.1-0.4,0.2-0.5,0.4l-0.7,1.1c0.7-4.7,2.6-9.2,5.6-12.9
	c9.2-11.2,25.8-12.9,37-3.7c4.2,3.5,7.2,8.1,8.7,13.4v0.4h0.3c0.9-0.2,1-0.2,1.1-0.4h0.1v-0.2c-1.4-5.8-4.7-11-9.4-14.7
	c-12-9.6-29.5-7.8-39.1,4.2c-3.2,3.9-5.2,8.7-5.9,13.7l-0.5-1.3c0-0.2-0.2-0.4-0.4-0.5h-0.6c-0.4,0.2-0.6,0.6-0.5,1l1.7,4.6
	c0.1,0.3,0.4,0.5,0.7,0.5h0.1l0.6-0.2L57.6,290.2z"/>
<path class="st15" d="M66.3,301.8l14.9,6.7h0.5l15.1-6.7c0.3-0.1,0.5-0.4,0.5-0.7v-6.6l4.3-2c0.2-0.1,0.4-0.3,0.4-0.5
	c0.1-0.2,0-0.5-0.1-0.7l-4.8-5.7l-15.3-5.3h-0.4l-15.1,5.1h-0.1l0.2,0.3l-0.3-0.3l-4.9,5.8c-0.1,0.2-0.2,0.5-0.2,0.7l0.5,0.5l4.3,2
	v6.6C65.8,301.3,66,301.7,66.3,301.8z M80.7,306.5l-13.3-6v-5.3l9,4c0.3,0.2,0.8,0.1,1-0.2l3.3-4V306.5z M95.7,300.5l-13.4,6V295
	l3.4,4c0.2,0.3,0.7,0.4,1,0.2l9-4V300.5z M96.2,287.1l3.7,4.4l-13.3,6l-3.7-4.4L96.2,287.1L96.2,287.1z M80.7,282.2v5
	c0,0.4,0.4,0.8,0.8,0.8c0.4,0.1,0.7-0.2,0.8-0.6c0-0.1,0-0.1,0-0.2v-5l12,4L81.5,292l-12.7-5.8L80.7,282.2z M63.1,291.5l3.7-4.4
	l13.4,6l-3.7,4.4L63.1,291.5z"/>
<g class="st16">
	<path class="st15" d="M-186.1,333.2v1.8h4.1v1.6h-4.1v1.9h4.6v1.6h-6.5v-8.4h6.4v1.6h-4.5V333.2z"/>
</g>
<g class="st16">
	<path class="st15" d="M-176.3,339.2c-0.2,0.3-0.5,0.5-0.8,0.6c-0.3,0.1-0.7,0.2-1.2,0.2c-0.3,0-0.7,0-0.9-0.2
		c-0.3-0.1-0.5-0.2-0.7-0.4c-0.2-0.2-0.3-0.4-0.4-0.6c-0.1-0.2-0.2-0.5-0.2-0.8c0-0.6,0.2-1.1,0.6-1.4c0.4-0.3,1-0.5,1.8-0.5h1.8
		V336c0-0.3-0.1-0.6-0.3-0.8c-0.2-0.2-0.6-0.3-1-0.3c-0.3,0-0.6,0-0.9,0.1c-0.3,0.1-0.7,0.2-1,0.4l-0.6-1.3c0.2-0.1,0.5-0.2,0.7-0.3
		s0.5-0.2,0.7-0.2c0.2,0,0.5-0.1,0.7-0.1c0.3,0,0.5,0,0.8,0c0.9,0,1.5,0.2,2,0.6c0.5,0.4,0.7,1,0.7,1.7v4.2h-1.8
		C-176.3,340-176.3,339.2-176.3,339.2z M-177.8,338.8c0.4,0,0.7-0.1,1-0.3s0.4-0.4,0.5-0.7v-0.6h-1.5c-0.4,0-0.6,0.1-0.8,0.2
		c-0.2,0.1-0.3,0.3-0.3,0.6c0,0.2,0.1,0.4,0.3,0.6C-178.3,338.7-178.1,338.8-177.8,338.8z"/>
</g>
<g class="st16">
	<path class="st15" d="M-170.5,333.5c0.4,0,0.9,0.1,1.3,0.2c0.4,0.1,0.8,0.3,1.2,0.5l-0.6,1.3c-0.4-0.2-0.7-0.4-1.1-0.5
		c-0.3-0.1-0.6-0.2-0.9-0.2c-0.2,0-0.4,0-0.5,0.1c-0.1,0.1-0.2,0.2-0.2,0.4c0,0.2,0.1,0.3,0.3,0.4c0.2,0.1,0.4,0.2,0.6,0.3
		c0.3,0.1,0.5,0.2,0.8,0.2c0.3,0.1,0.6,0.2,0.8,0.4c0.3,0.2,0.5,0.3,0.6,0.6c0.1,0.3,0.2,0.5,0.2,0.9c0,0.3-0.1,0.6-0.2,0.9
		c-0.1,0.3-0.3,0.5-0.6,0.6c-0.3,0.1-0.5,0.3-0.8,0.4c-0.3,0.1-0.7,0.1-1,0.1c-0.5,0-1-0.1-1.5-0.2c-0.5-0.2-0.9-0.4-1.3-0.7
		l0.6-1.2c0.3,0.3,0.7,0.5,1.1,0.6c0.4,0.1,0.8,0.2,1.1,0.2c0.2,0,0.4,0,0.6-0.1c0.2-0.1,0.2-0.2,0.2-0.4c0-0.2-0.1-0.3-0.2-0.4
		c-0.2-0.1-0.4-0.2-0.6-0.3s-0.5-0.2-0.8-0.2c-0.3-0.1-0.6-0.2-0.8-0.3c-0.2-0.1-0.5-0.3-0.6-0.6c-0.2-0.2-0.2-0.5-0.2-0.9
		c0-0.3,0.1-0.6,0.2-0.9s0.3-0.5,0.5-0.6s0.5-0.3,0.8-0.4C-171.2,333.5-170.9,333.5-170.5,333.5z"/>
</g>
<g class="st16">
	<path class="st15" d="M-163.6,340.7c-0.4,1.1-1.2,1.7-2.4,1.7c-0.3,0-0.7,0-0.9-0.2c-0.3-0.1-0.6-0.3-0.8-0.5l0.8-1.3
		c0.3,0.2,0.6,0.3,0.8,0.3c0.4,0,0.7-0.2,0.9-0.6l0.2-0.4l-2.7-6.3h1.9l1.7,4.4l1.5-4.4h1.8L-163.6,340.7z"/>
</g>
<g class="st16">
	<path class="st15" d="M-152.4,339.6c-0.2,0.1-0.5,0.2-0.8,0.3c-0.3,0.1-0.6,0.1-0.9,0.1s-0.6,0-0.8-0.1c-0.2-0.1-0.5-0.2-0.6-0.4
		c-0.2-0.2-0.3-0.4-0.4-0.6s-0.2-0.5-0.2-0.9v-3h-0.9v-1.3h0.9v-1.8h1.8v1.8h1.8v1.3h-1.8v2.7c0,0.3,0.1,0.5,0.2,0.6
		c0.1,0.1,0.3,0.2,0.5,0.2c0.2,0,0.5-0.1,0.9-0.2L-152.4,339.6z"/>
</g>
<g class="st16">
	<path class="st15" d="M-148.7,333.5c0.5,0,1,0.1,1.4,0.2c0.4,0.2,0.8,0.4,1.1,0.7s0.5,0.6,0.7,1s0.3,0.9,0.3,1.4s-0.1,0.9-0.3,1.3
		c-0.2,0.4-0.4,0.8-0.7,1c-0.3,0.3-0.7,0.5-1.1,0.7c-0.4,0.2-0.9,0.2-1.4,0.2s-1-0.1-1.4-0.2c-0.4-0.2-0.8-0.4-1.1-0.7
		c-0.3-0.3-0.5-0.6-0.7-1c-0.2-0.4-0.3-0.9-0.3-1.3s0.1-0.9,0.3-1.4c0.2-0.4,0.4-0.8,0.7-1s0.7-0.5,1.1-0.7
		C-149.7,333.6-149.2,333.5-148.7,333.5z M-148.7,335c-0.5,0-0.9,0.2-1.2,0.5c-0.3,0.3-0.4,0.8-0.4,1.3s0.1,1,0.4,1.3
		s0.7,0.5,1.2,0.5c0.2,0,0.5,0,0.7-0.1s0.4-0.2,0.5-0.4s0.2-0.3,0.3-0.6c0.1-0.2,0.1-0.5,0.1-0.7c0-0.2,0-0.5-0.1-0.7
		s-0.2-0.4-0.3-0.6s-0.3-0.3-0.5-0.4C-148.2,335.1-148.5,335-148.7,335z"/>
</g>
<g class="st16">
	<path class="st15" d="M-197.4,347.9c0.5,0,0.9,0.1,1.2,0.2c0.4,0.2,0.7,0.4,1,0.7s0.5,0.6,0.6,1c0.1,0.4,0.2,0.9,0.2,1.4
		s-0.1,0.9-0.2,1.3c-0.1,0.4-0.3,0.7-0.6,1c-0.3,0.3-0.6,0.5-0.9,0.7s-0.8,0.2-1.2,0.2s-0.9-0.1-1.2-0.3s-0.6-0.4-0.9-0.8v3.3h-1.8
		v-8.8h1.8v0.9c0.2-0.3,0.5-0.6,0.9-0.8C-198.2,348-197.8,347.9-197.4,347.9z M-197.8,352.9c0.2,0,0.5,0,0.7-0.1
		c0.2-0.1,0.4-0.2,0.5-0.4c0.1-0.2,0.2-0.3,0.3-0.6c0.1-0.2,0.1-0.5,0.1-0.7c0-0.5-0.1-0.9-0.4-1.3s-0.7-0.5-1.2-0.5
		s-0.9,0.2-1.2,0.5s-0.4,0.8-0.4,1.3s0.1,1,0.4,1.3C-198.7,352.8-198.3,352.9-197.8,352.9z"/>
	<path class="st15" d="M-190.3,347.9c0.6,0,1.1,0.1,1.5,0.3c0.4,0.2,0.8,0.4,1,0.8c0.3,0.3,0.5,0.7,0.6,1.2c0.1,0.5,0.1,1,0.1,1.6
		h-4.6c0.1,0.4,0.3,0.7,0.6,1c0.3,0.2,0.6,0.3,1.1,0.3c0.6,0,1.2-0.2,1.6-0.7l1,1c-0.3,0.4-0.7,0.6-1.2,0.8s-1,0.3-1.6,0.3
		c-0.5,0-1-0.1-1.4-0.2s-0.8-0.4-1.1-0.7c-0.3-0.3-0.5-0.6-0.7-1c-0.2-0.4-0.2-0.8-0.2-1.3s0.1-0.9,0.2-1.4c0.2-0.4,0.4-0.8,0.7-1
		c0.3-0.3,0.6-0.5,1.1-0.7C-191.3,348-190.8,347.9-190.3,347.9z M-188.9,350.6c0-0.4-0.1-0.8-0.4-1c-0.3-0.3-0.6-0.4-1-0.4
		s-0.7,0.1-1,0.4s-0.4,0.6-0.5,1H-188.9z"/>
</g>
<g class="st16">
	<path class="st15" d="M-183.8,349.1c0.5-0.8,1.2-1.2,2.1-1.2v1.7c-0.3,0-0.6,0-0.9,0.1c-0.3,0.1-0.5,0.2-0.7,0.3
		c-0.2,0.2-0.3,0.3-0.4,0.6c-0.1,0.2-0.2,0.5-0.2,0.7v3.1h-1.8v-6.5h1.8v1.2L-183.8,349.1L-183.8,349.1z"/>
</g>
<g class="st16">
	<path class="st15" d="M-178.4,347.9c0.4,0,0.9,0.1,1.3,0.2c0.4,0.1,0.8,0.3,1.2,0.5l-0.6,1.3c-0.4-0.2-0.7-0.4-1.1-0.5
		c-0.3-0.1-0.6-0.2-0.9-0.2c-0.2,0-0.4,0-0.5,0.1c-0.1,0.1-0.2,0.2-0.2,0.4c0,0.2,0.1,0.3,0.3,0.4c0.2,0.1,0.4,0.2,0.6,0.3
		c0.3,0.1,0.5,0.2,0.8,0.2c0.3,0.1,0.6,0.2,0.8,0.4c0.3,0.2,0.5,0.3,0.6,0.6c0.1,0.3,0.2,0.5,0.2,0.9c0,0.3-0.1,0.6-0.2,0.9
		c-0.1,0.3-0.3,0.5-0.6,0.6c-0.3,0.1-0.5,0.3-0.8,0.4c-0.3,0.1-0.7,0.1-1,0.1c-0.5,0-1-0.1-1.5-0.2c-0.5-0.2-0.9-0.4-1.3-0.7
		l0.6-1.2c0.3,0.3,0.7,0.5,1.1,0.6s0.8,0.2,1.1,0.2c0.2,0,0.4,0,0.6-0.1c0.2-0.1,0.2-0.2,0.2-0.4c0-0.2-0.1-0.3-0.2-0.4
		c-0.2-0.1-0.4-0.2-0.6-0.3c-0.2-0.1-0.5-0.2-0.8-0.2c-0.3-0.1-0.6-0.2-0.8-0.3s-0.5-0.3-0.6-0.6c-0.2-0.2-0.2-0.5-0.2-0.9
		c0-0.3,0.1-0.6,0.2-0.9c0.1-0.3,0.3-0.5,0.5-0.6c0.2-0.1,0.5-0.3,0.8-0.4C-179.1,347.9-178.8,347.9-178.4,347.9z"/>
	<path class="st15" d="M-171.7,347.9c0.5,0,1,0.1,1.4,0.2c0.4,0.2,0.8,0.4,1.1,0.7s0.5,0.6,0.7,1s0.3,0.9,0.3,1.4s-0.1,0.9-0.3,1.3
		c-0.2,0.4-0.4,0.8-0.7,1c-0.3,0.3-0.7,0.5-1.1,0.7c-0.4,0.2-0.9,0.2-1.4,0.2s-1-0.1-1.4-0.2c-0.4-0.2-0.8-0.4-1.1-0.7
		c-0.3-0.3-0.5-0.6-0.7-1c-0.2-0.4-0.3-0.9-0.3-1.3s0.1-0.9,0.3-1.4c0.2-0.4,0.4-0.8,0.7-1s0.7-0.5,1.1-0.7
		C-172.7,348-172.2,347.9-171.7,347.9z M-171.7,349.4c-0.5,0-0.9,0.2-1.2,0.5c-0.3,0.3-0.4,0.8-0.4,1.3s0.1,1,0.4,1.3
		c0.3,0.3,0.7,0.5,1.2,0.5c0.2,0,0.5,0,0.7-0.1s0.4-0.2,0.5-0.4s0.2-0.3,0.3-0.6c0.1-0.2,0.1-0.5,0.1-0.7c0-0.2,0-0.5-0.1-0.7
		c-0.1-0.2-0.2-0.4-0.3-0.6c-0.1-0.2-0.3-0.3-0.5-0.4C-171.3,349.5-171.5,349.4-171.7,349.4z"/>
	<path class="st15" d="M-162.9,347.9c0.4,0,0.7,0.1,1,0.2c0.3,0.1,0.5,0.3,0.7,0.5c0.2,0.2,0.4,0.5,0.5,0.8c0.1,0.3,0.2,0.6,0.2,1
		v4.1h-1.8V351c0-0.4-0.1-0.7-0.3-1c-0.2-0.2-0.5-0.4-0.9-0.4c-0.5,0-0.8,0.2-1.1,0.5c-0.3,0.3-0.4,0.7-0.4,1.2v3.2h-2V348h1.8v1.1
		c0.2-0.4,0.5-0.7,0.9-0.9C-163.9,348-163.5,347.9-162.9,347.9z"/>
	<path class="st15" d="M-155.2,353.6c-0.2,0.3-0.5,0.5-0.8,0.6s-0.7,0.2-1.2,0.2c-0.3,0-0.7,0-0.9-0.2c-0.3-0.1-0.5-0.2-0.7-0.4
		c-0.2-0.2-0.3-0.4-0.4-0.6s-0.2-0.5-0.2-0.8c0-0.6,0.2-1.1,0.6-1.4c0.4-0.3,1-0.5,1.8-0.5h1.8v-0.1c0-0.3-0.1-0.6-0.3-0.8
		c-0.2-0.2-0.6-0.3-1-0.3c-0.3,0-0.6,0-0.9,0.1c-0.3,0.1-0.7,0.2-1,0.4l-0.6-1.3c0.2-0.1,0.5-0.2,0.7-0.3c0.2-0.1,0.5-0.2,0.7-0.2
		s0.5-0.1,0.7-0.1c0.3,0,0.5,0,0.8,0c0.9,0,1.5,0.2,2,0.6s0.7,1,0.7,1.7v4.2h-1.8C-155.2,354.4-155.2,353.6-155.2,353.6z
		 M-156.8,353.2c0.4,0,0.7-0.1,1-0.3s0.4-0.4,0.5-0.7v-0.6h-1.5c-0.4,0-0.6,0.1-0.8,0.2c-0.2,0.1-0.3,0.3-0.3,0.6
		c0,0.2,0.1,0.4,0.3,0.6C-157.3,353.1-157.1,353.2-156.8,353.2z"/>
	<path class="st15" d="M-151.8,354.4v-8.9h1.8v8.9H-151.8z"/>
	<path class="st15" d="M-147.2,345.1c0.3,0,0.5,0.1,0.7,0.3c0.2,0.2,0.3,0.4,0.3,0.7s-0.1,0.6-0.3,0.7c-0.2,0.2-0.4,0.3-0.7,0.3
		s-0.5-0.1-0.7-0.3c-0.2-0.2-0.3-0.4-0.3-0.7s0.1-0.6,0.3-0.7C-147.7,345.2-147.5,345.1-147.2,345.1z M-148.1,354.4v-6.5h1.8v6.5
		H-148.1z"/>
</g>
<g class="st16">
	<path class="st15" d="M-142.4,352.9h3.4v1.5h-5.7v-1.2l3.3-3.8h-3.2V348h5.5v1.2L-142.4,352.9z"/>
</g>
<g class="st16">
	<path class="st15" d="M-135.2,347.9c0.6,0,1.1,0.1,1.5,0.3c0.4,0.2,0.8,0.4,1,0.8c0.3,0.3,0.5,0.7,0.6,1.2c0.1,0.5,0.1,1,0.1,1.6
		h-4.6c0.1,0.4,0.3,0.7,0.6,1c0.3,0.2,0.6,0.3,1.1,0.3c0.6,0,1.2-0.2,1.6-0.7l1,1c-0.3,0.4-0.7,0.6-1.2,0.8s-1,0.3-1.6,0.3
		c-0.5,0-1-0.1-1.4-0.2s-0.8-0.4-1.1-0.7c-0.3-0.3-0.5-0.6-0.7-1c-0.2-0.4-0.2-0.8-0.2-1.3s0.1-0.9,0.2-1.4c0.2-0.4,0.4-0.8,0.7-1
		c0.3-0.3,0.6-0.5,1.1-0.7C-136.2,348-135.7,347.9-135.2,347.9z M-133.8,350.6c0-0.4-0.1-0.8-0.4-1c-0.3-0.3-0.6-0.4-1-0.4
		c-0.4,0-0.7,0.1-1,0.4c-0.3,0.3-0.4,0.6-0.5,1H-133.8z"/>
</g>
<g class="st16">
	<path class="st15" d="M-66.6,333.5c0.7,0,1.3,0.2,1.7,0.7c0.4,0.4,0.6,1,0.6,1.8v4.1h-1.8v-3.6c0-0.4-0.1-0.7-0.3-1
		c-0.2-0.2-0.5-0.3-0.9-0.3s-0.8,0.2-1,0.5c-0.3,0.3-0.4,0.7-0.4,1.2v3.2h-1.8v-3.6c0-0.4-0.1-0.7-0.3-1c-0.2-0.2-0.5-0.3-0.9-0.3
		c-0.5,0-0.8,0.2-1.1,0.5c-0.3,0.3-0.4,0.7-0.4,1.2v3.2H-75v-6.6h1.8v1.1c0.2-0.4,0.5-0.7,0.9-0.9s0.8-0.3,1.3-0.3
		c0.6,0,1,0.1,1.4,0.4s0.6,0.6,0.8,1.1c0.2-0.5,0.5-0.9,0.9-1.1S-67.1,333.5-66.6,333.5z"/>
</g>
<g class="st16">
	<path class="st15" d="M-59.5,333.5c0.5,0,1,0.1,1.4,0.2c0.4,0.2,0.8,0.4,1.1,0.7s0.5,0.6,0.7,1s0.3,0.9,0.3,1.4s-0.1,0.9-0.3,1.3
		c-0.2,0.4-0.4,0.8-0.7,1c-0.3,0.3-0.7,0.5-1.1,0.7c-0.4,0.2-0.9,0.2-1.4,0.2s-1-0.1-1.4-0.2c-0.4-0.2-0.8-0.4-1.1-0.7
		c-0.3-0.3-0.5-0.6-0.7-1c-0.2-0.4-0.3-0.9-0.3-1.3s0.1-0.9,0.3-1.4c0.2-0.4,0.4-0.8,0.7-1s0.7-0.5,1.1-0.7
		C-60.5,333.6-60,333.5-59.5,333.5z M-59.5,335c-0.5,0-0.9,0.2-1.2,0.5s-0.4,0.8-0.4,1.3s0.1,1,0.4,1.3c0.3,0.3,0.7,0.5,1.2,0.5
		c0.2,0,0.5,0,0.7-0.1s0.4-0.2,0.5-0.4s0.2-0.3,0.3-0.6c0.1-0.2,0.1-0.5,0.1-0.7c0-0.2,0-0.5-0.1-0.7s-0.2-0.4-0.3-0.6
		s-0.3-0.3-0.5-0.4C-59,335.1-59.3,335-59.5,335z"/>
</g>
<g class="st16">
	<path class="st15" d="M-50.6,333.5c0.4,0,0.7,0.1,1,0.2c0.3,0.1,0.5,0.3,0.7,0.5c0.2,0.2,0.4,0.5,0.5,0.8s0.2,0.6,0.2,1v4.1H-50
		v-3.6c0-0.4-0.1-0.7-0.3-1c-0.2-0.2-0.5-0.4-0.9-0.4c-0.5,0-0.8,0.2-1.1,0.5s-0.4,0.7-0.4,1.2v3.2h-2v-6.5h1.8v1.1
		c0.2-0.4,0.5-0.7,0.9-0.9C-51.6,333.6-51.1,333.5-50.6,333.5z"/>
</g>
<g class="st16">
	<path class="st15" d="M-43.6,333.5c0.6,0,1.1,0.1,1.5,0.3c0.4,0.2,0.8,0.4,1,0.8c0.3,0.3,0.5,0.7,0.6,1.2s0.1,1,0.1,1.6H-45
		c0.1,0.4,0.3,0.7,0.6,1c0.3,0.2,0.6,0.3,1.1,0.3c0.6,0,1.2-0.2,1.6-0.7l1,1c-0.3,0.4-0.7,0.6-1.2,0.8s-1,0.3-1.6,0.3
		c-0.5,0-1-0.1-1.4-0.2s-0.8-0.4-1.1-0.7c-0.3-0.3-0.5-0.6-0.7-1c-0.2-0.4-0.2-0.8-0.2-1.3s0.1-0.9,0.2-1.4c0.2-0.4,0.4-0.8,0.7-1
		c0.3-0.3,0.6-0.5,1.1-0.7C-44.6,333.6-44.1,333.5-43.6,333.5z M-42.2,336.2c0-0.4-0.1-0.8-0.4-1c-0.3-0.3-0.6-0.4-1-0.4
		s-0.7,0.1-1,0.4s-0.4,0.6-0.5,1H-42.2z"/>
</g>
<g class="st16">
	<path class="st15" d="M-36,340.7c-0.4,1.1-1.2,1.7-2.4,1.7c-0.3,0-0.7,0-0.9-0.2c-0.3-0.1-0.6-0.3-0.8-0.5l0.8-1.3
		c0.3,0.2,0.6,0.3,0.8,0.3c0.4,0,0.7-0.2,0.9-0.6l0.2-0.4l-2.7-6.3h1.9l1.7,4.4l1.5-4.4h1.8L-36,340.7z"/>
</g>
<g class="st16">
	<path class="st15" d="M-32.5,336.9v-1.2h3.1v1.2H-32.5z"/>
</g>
<g class="st16">
	<path class="st15" d="M-23.8,333.5c0.5,0,0.9,0.1,1.2,0.2c0.4,0.2,0.7,0.4,1,0.7s0.5,0.6,0.6,1s0.2,0.9,0.2,1.4s-0.1,0.9-0.2,1.3
		c-0.1,0.4-0.3,0.7-0.6,1c-0.3,0.3-0.6,0.5-0.9,0.7s-0.8,0.2-1.2,0.2s-0.9-0.1-1.2-0.3s-0.6-0.4-0.9-0.8v0.9h-1.9v-8.9h1.8v3.4
		c0.2-0.3,0.5-0.6,0.9-0.8C-24.6,333.6-24.2,333.5-23.8,333.5z M-24.2,338.5c0.2,0,0.5,0,0.7-0.1s0.4-0.2,0.5-0.4s0.2-0.3,0.3-0.6
		c0.1-0.2,0.1-0.5,0.1-0.7c0-0.5-0.1-0.9-0.4-1.3s-0.7-0.5-1.2-0.5s-0.9,0.2-1.2,0.5s-0.4,0.8-0.4,1.3s0.1,1,0.4,1.3
		C-25.1,338.4-24.7,338.5-24.2,338.5z"/>
</g>
<g class="st16">
	<path class="st15" d="M-15.9,339.2c-0.2,0.3-0.5,0.5-0.8,0.6c-0.3,0.1-0.7,0.2-1.2,0.2c-0.3,0-0.7,0-0.9-0.2
		c-0.3-0.1-0.5-0.2-0.7-0.4c-0.2-0.2-0.3-0.4-0.4-0.6c-0.1-0.2-0.2-0.5-0.2-0.8c0-0.6,0.2-1.1,0.6-1.4c0.4-0.3,1-0.5,1.8-0.5h1.8
		V336c0-0.3-0.1-0.6-0.3-0.8c-0.2-0.2-0.6-0.3-1-0.3c-0.3,0-0.6,0-0.9,0.1c-0.3,0.1-0.7,0.2-1,0.4l-0.6-1.3c0.2-0.1,0.5-0.2,0.7-0.3
		s0.5-0.2,0.7-0.2s0.5-0.1,0.7-0.1c0.3,0,0.5,0,0.8,0c0.9,0,1.5,0.2,2,0.6c0.5,0.4,0.7,1,0.7,1.7v4.2h-1.8L-15.9,339.2L-15.9,339.2z
		 M-17.4,338.8c0.4,0,0.7-0.1,1-0.3s0.4-0.4,0.5-0.7v-0.6h-1.5c-0.4,0-0.6,0.1-0.8,0.2s-0.3,0.3-0.3,0.6c0,0.2,0.1,0.4,0.3,0.6
		C-17.9,338.7-17.7,338.8-17.4,338.8z"/>
</g>
<g class="st16">
	<path class="st15" d="M-9.5,333.5c0.6,0,1.2,0.1,1.6,0.4c0.5,0.2,0.9,0.6,1.1,1l-1.2,0.9c-0.2-0.2-0.4-0.4-0.6-0.5
		s-0.5-0.2-0.8-0.2c-0.5,0-0.8,0.2-1.1,0.5c-0.3,0.3-0.4,0.7-0.4,1.3c0,0.5,0.1,1,0.4,1.3c0.3,0.3,0.7,0.5,1.1,0.5
		c0.7,0,1.2-0.3,1.5-0.8l1.3,0.9c-0.3,0.5-0.7,0.8-1.1,1.1c-0.5,0.2-1.1,0.4-1.7,0.4c-0.5,0-0.9-0.1-1.3-0.2c-0.4-0.2-0.8-0.4-1-0.7
		s-0.5-0.6-0.7-1s-0.2-0.8-0.2-1.3s0.1-0.9,0.2-1.4c0.2-0.4,0.4-0.8,0.7-1c0.3-0.3,0.6-0.5,1-0.7C-10.4,333.6-9.9,333.5-9.5,333.5z"
		/>
</g>
<g class="st16">
	<path class="st15" d="M-3.4,338.2v1.8h-1.8v-8.9h1.8v4.9l2.4-2.4h2.1l-2.4,2.5l2.5,4H-1l-1.6-2.6L-3.4,338.2z"/>
</g>
<g class="st16">
	<path class="st15" d="M-63.6,353.8c0,0.5-0.1,0.9-0.2,1.2s-0.4,0.7-0.7,0.9c-0.3,0.3-0.7,0.5-1.1,0.6c-0.4,0.1-0.9,0.2-1.4,0.2
		c-0.6,0-1.1-0.1-1.5-0.2c-0.5-0.2-0.9-0.4-1.3-0.6l0.7-1.3c0.3,0.2,0.6,0.4,0.9,0.5c0.3,0.1,0.7,0.2,1.1,0.2c0.5,0,0.9-0.1,1.3-0.4
		s0.5-0.6,0.5-1v-0.7c-0.2,0.3-0.5,0.5-0.8,0.7s-0.7,0.2-1.1,0.2c-0.4,0-0.8-0.1-1.1-0.2s-0.6-0.4-0.9-0.6c-0.2-0.3-0.4-0.6-0.6-1
		c-0.1-0.4-0.2-0.8-0.2-1.3s0.1-0.9,0.2-1.2c0.1-0.4,0.3-0.7,0.6-1s0.5-0.5,0.9-0.6c0.3-0.1,0.7-0.2,1.1-0.2c0.4,0,0.8,0.1,1.2,0.2
		c0.3,0.2,0.6,0.4,0.8,0.7V348h1.8v5.8H-63.6L-63.6,353.8z M-66.9,352.7c0.5,0,0.8-0.2,1.1-0.5c0.3-0.3,0.4-0.7,0.4-1.2
		s-0.1-0.9-0.4-1.2c-0.3-0.3-0.6-0.5-1.1-0.5s-0.8,0.2-1.1,0.5c-0.3,0.3-0.4,0.7-0.4,1.2s0.1,0.9,0.4,1.2
		C-67.7,352.5-67.4,352.7-66.9,352.7z"/>
	<path class="st15" d="M-55.7,354.4h-1.8v-1.1c-0.2,0.4-0.5,0.7-0.9,0.9s-0.8,0.3-1.3,0.3c-0.7,0-1.3-0.2-1.7-0.7s-0.6-1-0.6-1.8
		v-4.1h1.8v3.5c0,0.4,0.1,0.7,0.3,1c0.2,0.2,0.5,0.3,0.9,0.3s0.8-0.2,1.1-0.5s0.4-0.7,0.4-1.2v-3.2h1.8V354.4z"/>
	<path class="st15" d="M-50.2,353.6c-0.2,0.3-0.5,0.5-0.8,0.6s-0.7,0.2-1.2,0.2c-0.3,0-0.7,0-0.9-0.2c-0.3-0.1-0.5-0.2-0.7-0.4
		s-0.3-0.4-0.4-0.6c-0.1-0.2-0.2-0.5-0.2-0.8c0-0.6,0.2-1.1,0.6-1.4c0.4-0.3,1-0.5,1.8-0.5h1.8v-0.1c0-0.3-0.1-0.6-0.3-0.8
		s-0.6-0.3-1-0.3c-0.3,0-0.6,0-0.9,0.1c-0.3,0.1-0.7,0.2-1,0.4l-0.6-1.3c0.2-0.1,0.5-0.2,0.7-0.3c0.2-0.1,0.5-0.2,0.7-0.2
		s0.5-0.1,0.7-0.1c0.3,0,0.5,0,0.8,0c0.9,0,1.5,0.2,2,0.6s0.7,1,0.7,1.7v4.2h-1.8L-50.2,353.6L-50.2,353.6z M-51.7,353.2
		c0.4,0,0.7-0.1,1-0.3s0.4-0.4,0.5-0.7v-0.6h-1.5c-0.4,0-0.6,0.1-0.8,0.2c-0.2,0.1-0.3,0.3-0.3,0.6c0,0.2,0.1,0.4,0.3,0.6
		C-52.3,353.1-52,353.2-51.7,353.2z"/>
</g>
<g class="st16">
	<path class="st15" d="M-44,349.1c0.5-0.8,1.2-1.2,2.1-1.2v1.7c-0.3,0-0.6,0-0.9,0.1c-0.3,0.1-0.5,0.2-0.7,0.3
		c-0.2,0.2-0.3,0.3-0.4,0.6c-0.1,0.2-0.2,0.5-0.2,0.7v3.1h-1.8v-6.5h1.8L-44,349.1L-44,349.1z"/>
</g>
<g class="st16">
	<path class="st15" d="M-37.2,353.6c-0.2,0.3-0.5,0.5-0.8,0.6s-0.7,0.2-1.2,0.2c-0.3,0-0.7,0-0.9-0.2c-0.3-0.1-0.5-0.2-0.7-0.4
		s-0.3-0.4-0.4-0.6c-0.1-0.2-0.2-0.5-0.2-0.8c0-0.6,0.2-1.1,0.6-1.4c0.4-0.3,1-0.5,1.8-0.5h1.8v-0.1c0-0.3-0.1-0.6-0.3-0.8
		s-0.6-0.3-1-0.3c-0.3,0-0.6,0-0.9,0.1c-0.3,0.1-0.7,0.2-1,0.4l-0.6-1.3c0.2-0.1,0.5-0.2,0.7-0.3c0.2-0.1,0.5-0.2,0.7-0.2
		s0.5-0.1,0.7-0.1c0.3,0,0.5,0,0.8,0c0.9,0,1.5,0.2,2,0.6s0.7,1,0.7,1.7v4.2h-1.8L-37.2,353.6L-37.2,353.6z M-38.7,353.2
		c0.4,0,0.7-0.1,1-0.3s0.4-0.4,0.5-0.7v-0.6h-1.5c-0.4,0-0.6,0.1-0.8,0.2c-0.2,0.1-0.3,0.3-0.3,0.6c0,0.2,0.1,0.4,0.3,0.6
		C-39.2,353.1-39,353.2-38.7,353.2z"/>
	<path class="st15" d="M-29.7,347.9c0.4,0,0.7,0.1,1,0.2c0.3,0.1,0.5,0.3,0.7,0.5c0.2,0.2,0.4,0.5,0.5,0.8s0.2,0.6,0.2,1v4.1h-1.8
		V351c0-0.4-0.1-0.7-0.3-1c-0.2-0.2-0.5-0.4-0.9-0.4c-0.5,0-0.8,0.2-1.1,0.5s-0.4,0.7-0.4,1.2v3.2h-1.8V348h1.8v1.1
		c0.2-0.4,0.5-0.7,0.9-0.9C-30.6,348-30.2,347.9-29.7,347.9z"/>
</g>
<g class="st16">
	<path class="st15" d="M-21.4,354c-0.2,0.1-0.5,0.2-0.8,0.3c-0.3,0.1-0.6,0.1-0.9,0.1c-0.3,0-0.6,0-0.8-0.1
		c-0.2-0.1-0.5-0.2-0.6-0.4c-0.2-0.2-0.3-0.4-0.4-0.6s-0.2-0.5-0.2-0.9v-3H-26v-1.3h0.9v-1.6h1.8v1.8h1.8v1.3h-1.8v2.7
		c0,0.3,0.1,0.5,0.2,0.6c0.1,0.1,0.3,0.2,0.5,0.2s0.5-0.1,0.9-0.2L-21.4,354z"/>
</g>
<g class="st16">
	<path class="st15" d="M-17.7,347.9c0.6,0,1.1,0.1,1.5,0.3c0.4,0.2,0.8,0.4,1,0.8c0.3,0.3,0.5,0.7,0.6,1.2s0.1,1,0.1,1.6h-4.6
		c0.1,0.4,0.3,0.7,0.6,1c0.3,0.2,0.6,0.3,1.1,0.3c0.6,0,1.2-0.2,1.6-0.7l1,1c-0.3,0.4-0.7,0.6-1.2,0.8s-1,0.3-1.6,0.3
		c-0.5,0-1-0.1-1.4-0.2s-0.8-0.4-1.1-0.7c-0.3-0.3-0.5-0.6-0.7-1c-0.2-0.4-0.2-0.8-0.2-1.3s0.1-0.9,0.2-1.4c0.2-0.4,0.4-0.8,0.7-1
		c0.3-0.3,0.6-0.5,1.1-0.7C-18.7,348-18.2,347.9-17.7,347.9z M-16.3,350.6c0-0.4-0.1-0.8-0.4-1c-0.3-0.3-0.6-0.4-1-0.4
		s-0.7,0.1-1,0.4s-0.4,0.6-0.5,1H-16.3z"/>
	<path class="st15" d="M-10.6,347.9c0.6,0,1.1,0.1,1.5,0.3c0.4,0.2,0.8,0.4,1,0.8c0.3,0.3,0.5,0.7,0.6,1.2s0.1,1,0.1,1.6H-12
		c0.1,0.4,0.3,0.7,0.6,1c0.3,0.2,0.6,0.3,1.1,0.3c0.6,0,1.2-0.2,1.6-0.7l1,1c-0.3,0.4-0.7,0.6-1.2,0.8s-1,0.3-1.6,0.3
		c-0.5,0-1-0.1-1.4-0.2s-0.8-0.4-1.1-0.7c-0.3-0.3-0.5-0.6-0.7-1c-0.2-0.4-0.2-0.8-0.2-1.3s0.1-0.9,0.2-1.4c0.2-0.4,0.4-0.8,0.7-1
		c0.3-0.3,0.6-0.5,1.1-0.7C-11.5,348-11.1,347.9-10.6,347.9z M-9.1,350.6c0-0.4-0.1-0.8-0.4-1c-0.3-0.3-0.6-0.4-1-0.4
		s-0.7,0.1-1,0.4s-0.4,0.6-0.5,1H-9.1z"/>
</g>
<g class="st16">
	<path class="st15" d="M53.4,340v-3.3h-3.8v3.3h-1.9v-8.4h1.9v3.5h3.8v-3.5h1.9v8.4H53.4z"/>
	<path class="st15" d="M60.9,339.2c-0.2,0.3-0.5,0.5-0.8,0.6c-0.3,0.1-0.7,0.2-1.2,0.2c-0.3,0-0.7,0-0.9-0.2
		c-0.3-0.1-0.5-0.2-0.7-0.4c-0.2-0.2-0.3-0.4-0.4-0.6c-0.1-0.2-0.2-0.5-0.2-0.8c0-0.6,0.2-1.1,0.6-1.4c0.4-0.3,1-0.5,1.8-0.5h1.8
		V336c0-0.3-0.1-0.6-0.3-0.8c-0.2-0.2-0.6-0.3-1-0.3c-0.3,0-0.6,0-0.9,0.1s-0.7,0.2-1,0.4l-0.6-1.3c0.2-0.1,0.5-0.2,0.7-0.3
		s0.5-0.2,0.7-0.2c0.2-0.1,0.5-0.1,0.7-0.1c0.3,0,0.5,0,0.8,0c0.9,0,1.5,0.2,2,0.6c0.5,0.4,0.7,1,0.7,1.7v4.2h-1.8L60.9,339.2
		L60.9,339.2z M59.4,338.8c0.4,0,0.7-0.1,1-0.3s0.4-0.4,0.5-0.7v-0.6h-1.5c-0.4,0-0.6,0.1-0.8,0.2c-0.2,0.1-0.3,0.3-0.3,0.6
		c0,0.2,0.1,0.4,0.3,0.6C58.8,338.7,59.1,338.8,59.4,338.8z"/>
	<path class="st15" d="M66.5,333.5c0.4,0,0.9,0.1,1.3,0.2c0.4,0.1,0.8,0.3,1.2,0.5l-0.6,1.3c-0.4-0.2-0.7-0.4-1-0.5
		s-0.6-0.2-0.9-0.2c-0.2,0-0.4,0-0.5,0.1c-0.1,0.1-0.2,0.2-0.2,0.4c0,0.2,0.1,0.3,0.3,0.4c0.2,0.1,0.4,0.2,0.6,0.3
		c0.3,0.1,0.5,0.2,0.8,0.2c0.3,0.1,0.6,0.2,0.8,0.4c0.3,0.2,0.5,0.3,0.6,0.6c0.1,0.3,0.2,0.5,0.2,0.9c0,0.3-0.1,0.6-0.2,0.9
		s-0.3,0.5-0.6,0.6c-0.2,0.2-0.5,0.3-0.8,0.4c-0.3,0.1-0.7,0.1-1,0.1c-0.5,0-1-0.1-1.5-0.2c-0.5-0.2-0.9-0.4-1.3-0.7l0.6-1.2
		c0.3,0.3,0.7,0.5,1.1,0.6s0.8,0.2,1.1,0.2c0.2,0,0.4,0,0.6-0.1c0.2-0.1,0.2-0.2,0.2-0.4c0-0.2-0.1-0.3-0.2-0.4
		c-0.2-0.1-0.4-0.2-0.6-0.3s-0.5-0.2-0.8-0.2s-0.6-0.2-0.8-0.3c-0.2-0.1-0.5-0.3-0.6-0.6c-0.2-0.2-0.2-0.5-0.2-0.9
		c0-0.3,0.1-0.6,0.2-0.9s0.3-0.5,0.5-0.6c0.2-0.2,0.5-0.3,0.8-0.4S66.1,333.5,66.5,333.5z"/>
	<path class="st15" d="M72.5,333.5c0.4,0,0.9,0.1,1.3,0.2c0.4,0.1,0.8,0.3,1.2,0.5l-0.6,1.3c-0.4-0.2-0.7-0.4-1.1-0.5
		c-0.3-0.1-0.6-0.2-0.9-0.2c-0.2,0-0.4,0-0.5,0.1c-0.1,0.1-0.2,0.2-0.2,0.4c0,0.2,0.1,0.3,0.3,0.4c0.2,0.1,0.4,0.2,0.6,0.3
		c0.3,0.1,0.5,0.2,0.8,0.2c0.3,0.1,0.6,0.2,0.8,0.4c0.3,0.2,0.5,0.3,0.6,0.6c0.1,0.3,0.2,0.5,0.2,0.9c0,0.3-0.1,0.6-0.2,0.9
		s-0.3,0.5-0.6,0.6c-0.2,0.2-0.5,0.3-0.8,0.4c-0.3,0.1-0.7,0.1-1,0.1c-0.5,0-1-0.1-1.5-0.2c-0.5-0.2-0.9-0.4-1.3-0.7l0.6-1.2
		c0.3,0.3,0.7,0.5,1.1,0.6s0.8,0.2,1.1,0.2c0.2,0,0.4,0,0.6-0.1c0.2-0.1,0.2-0.2,0.2-0.4c0-0.2-0.1-0.3-0.2-0.4
		c-0.2-0.1-0.4-0.2-0.6-0.3s-0.5-0.2-0.8-0.2c-0.3-0.1-0.6-0.2-0.8-0.3c-0.2-0.1-0.5-0.3-0.6-0.6c-0.2-0.2-0.2-0.5-0.2-0.9
		c0-0.3,0.1-0.6,0.2-0.9s0.3-0.5,0.5-0.6c0.2-0.2,0.5-0.3,0.8-0.4C71.8,333.5,72.1,333.5,72.5,333.5z"/>
	<path class="st15" d="M76.3,340v-8.9h1.8v8.9H76.3z"/>
	<path class="st15" d="M82.8,333.5c0.6,0,1.1,0.1,1.5,0.3c0.4,0.2,0.8,0.4,1,0.8c0.3,0.3,0.5,0.7,0.6,1.2s0.1,1,0.1,1.6h-4.6
		c0.1,0.4,0.3,0.7,0.6,1c0.3,0.2,0.6,0.3,1.1,0.3c0.6,0,1.2-0.2,1.6-0.7l1,1c-0.3,0.4-0.7,0.6-1.2,0.8s-1,0.3-1.6,0.3
		c-0.5,0-1-0.1-1.4-0.2s-0.8-0.4-1.1-0.7c-0.3-0.3-0.5-0.6-0.7-1c-0.2-0.4-0.2-0.8-0.2-1.3s0.1-0.9,0.2-1.4c0.2-0.4,0.4-0.8,0.7-1
		c0.3-0.3,0.6-0.5,1-0.7C81.8,333.6,82.3,333.5,82.8,333.5z M84.2,336.2c0-0.4-0.1-0.8-0.4-1c-0.3-0.3-0.6-0.4-1-0.4s-0.7,0.1-1,0.4
		s-0.4,0.6-0.5,1H84.2z"/>
</g>
<g class="st16">
	<path class="st15" d="M94.2,332.5c-0.2,0-0.4,0.1-0.5,0.2c-0.1,0.1-0.2,0.3-0.2,0.6v0.5H95v1.3h-1.5v4.9h-1.8v-4.9h-0.9v-1.3h0.9
		v-0.6c0-0.4,0.1-0.7,0.2-1c0.1-0.3,0.3-0.5,0.5-0.7s0.5-0.3,0.8-0.4s0.6-0.1,0.9-0.1s0.6,0,0.9,0.1s0.6,0.2,0.8,0.3l-0.7,1.3
		c-0.1-0.1-0.2-0.2-0.4-0.2C94.5,332.6,94.4,332.5,94.2,332.5z"/>
</g>
<g class="st16">
	<path class="st15" d="M98.5,334.7c0.5-0.8,1.2-1.2,2.1-1.2v1.7c-0.3,0-0.6,0-0.9,0.1c-0.3,0.1-0.5,0.2-0.7,0.3
		c-0.2,0.2-0.3,0.3-0.4,0.6c-0.1,0.2-0.2,0.5-0.2,0.7v3.1h-1.8v-6.5h1.8v1.2H98.5z"/>
</g>
<g class="st16">
	<path class="st15" d="M104.4,333.5c0.6,0,1.1,0.1,1.5,0.3c0.4,0.2,0.8,0.4,1,0.8c0.3,0.3,0.5,0.7,0.6,1.2s0.1,1,0.1,1.6H103
		c0.1,0.4,0.3,0.7,0.6,1c0.3,0.2,0.6,0.3,1.1,0.3c0.6,0,1.2-0.2,1.6-0.7l1,1c-0.3,0.4-0.7,0.6-1.2,0.8s-1,0.3-1.6,0.3
		c-0.5,0-1-0.1-1.4-0.2s-0.8-0.4-1.1-0.7c-0.3-0.3-0.5-0.6-0.7-1c-0.2-0.4-0.2-0.8-0.2-1.3s0.1-0.9,0.2-1.4c0.2-0.4,0.4-0.8,0.7-1
		c0.3-0.3,0.6-0.5,1-0.7C103.4,333.6,103.9,333.5,104.4,333.5z M105.8,336.2c0-0.4-0.1-0.8-0.4-1c-0.3-0.3-0.6-0.4-1-0.4
		s-0.7,0.1-1,0.4s-0.4,0.6-0.5,1H105.8z"/>
	<path class="st15" d="M111.5,333.5c0.6,0,1.1,0.1,1.5,0.3c0.4,0.2,0.8,0.4,1,0.8c0.3,0.3,0.5,0.7,0.6,1.2s0.1,1,0.1,1.6h-4.6
		c0.1,0.4,0.3,0.7,0.6,1c0.3,0.2,0.6,0.3,1.1,0.3c0.6,0,1.2-0.2,1.6-0.7l1,1c-0.3,0.4-0.7,0.6-1.2,0.8s-1,0.3-1.6,0.3
		c-0.5,0-1-0.1-1.4-0.2s-0.8-0.4-1.1-0.7c-0.3-0.3-0.5-0.6-0.7-1c-0.2-0.4-0.2-0.8-0.2-1.3s0.1-0.9,0.2-1.4c0.2-0.4,0.4-0.8,0.7-1
		c0.3-0.3,0.6-0.5,1-0.7C110.6,333.6,111,333.5,111.5,333.5z M113,336.2c0-0.4-0.1-0.8-0.4-1c-0.3-0.3-0.6-0.4-1-0.4s-0.7,0.1-1,0.4
		s-0.4,0.6-0.5,1H113z"/>
</g>
<g class="st16">
	<path class="st15" d="M61.4,349.1c0.5-0.8,1.2-1.2,2.1-1.2v1.7c-0.3,0-0.6,0-0.9,0.1s-0.5,0.2-0.7,0.3c-0.2,0.2-0.3,0.3-0.4,0.6
		c-0.1,0.2-0.2,0.5-0.2,0.7v3.1h-1.8v-6.5h1.8v1.2L61.4,349.1L61.4,349.1z"/>
</g>
<g class="st16">
	<path class="st15" d="M67.3,347.9c0.6,0,1.1,0.1,1.5,0.3c0.4,0.2,0.8,0.4,1,0.8s0.5,0.7,0.6,1.2s0.1,1,0.1,1.6h-4.6
		c0.1,0.4,0.3,0.7,0.6,1c0.3,0.2,0.6,0.3,1.1,0.3c0.6,0,1.2-0.2,1.6-0.7l1,1c-0.3,0.4-0.7,0.6-1.2,0.8s-1,0.3-1.6,0.3
		c-0.5,0-1-0.1-1.4-0.2s-0.8-0.4-1.1-0.7c-0.3-0.3-0.5-0.6-0.7-1c-0.2-0.4-0.2-0.8-0.2-1.3s0.1-0.9,0.2-1.4c0.2-0.4,0.4-0.8,0.7-1
		c0.3-0.3,0.6-0.5,1.1-0.7C66.3,348,66.8,347.9,67.3,347.9z M68.7,350.6c0-0.4-0.2-0.8-0.4-1s-0.6-0.4-1-0.4s-0.7,0.1-1,0.4
		c-0.3,0.3-0.4,0.6-0.5,1H68.7z"/>
	<path class="st15" d="M75.6,354c-0.2,0.1-0.5,0.2-0.8,0.3c-0.3,0.1-0.6,0.1-0.9,0.1s-0.6,0-0.8-0.1c-0.2-0.1-0.5-0.2-0.6-0.4
		c-0.2-0.2-0.3-0.4-0.4-0.6c-0.1-0.2-0.2-0.5-0.2-0.9v-3H71v-1.3h0.9v-1.6h1.8v1.8h1.8v1.3h-1.8v2.7c0,0.3,0.1,0.5,0.2,0.6
		c0.1,0.1,0.3,0.2,0.5,0.2s0.5-0.1,0.9-0.2L75.6,354z"/>
	<path class="st15" d="M82.9,354.4h-1.8v-1.1c-0.2,0.4-0.5,0.7-0.9,0.9s-0.8,0.3-1.3,0.3c-0.7,0-1.3-0.2-1.7-0.7s-0.6-1-0.6-1.8
		v-4.1h1.8v3.5c0,0.4,0.1,0.7,0.3,1c0.2,0.2,0.5,0.3,0.9,0.3s0.8-0.2,1-0.5c0.3-0.3,0.4-0.7,0.4-1.2v-3.2h1.8v6.6H82.9z"/>
</g>
<g class="st16">
	<path class="st15" d="M87.1,349.1c0.5-0.8,1.2-1.2,2.1-1.2v1.7c-0.3,0-0.6,0-0.9,0.1s-0.5,0.2-0.7,0.3c-0.2,0.2-0.3,0.3-0.4,0.6
		c-0.1,0.2-0.2,0.5-0.2,0.7v3.1h-1.8v-6.5H87v1.2L87.1,349.1L87.1,349.1z"/>
</g>
<g class="st16">
	<path class="st15" d="M94.3,347.9c0.4,0,0.7,0.1,1,0.2c0.3,0.1,0.5,0.3,0.7,0.5c0.2,0.2,0.4,0.5,0.5,0.8s0.2,0.6,0.2,1v4.1h-1.8
		V351c0-0.4-0.1-0.7-0.3-1c-0.2-0.2-0.5-0.4-0.9-0.4c-0.5,0-0.8,0.2-1.1,0.5c-0.3,0.3-0.4,0.7-0.4,1.2v3.2h-1.8V348h1.8v1.1
		c0.2-0.4,0.5-0.7,0.9-0.9C93.3,348,93.8,347.9,94.3,347.9z"/>
	<path class="st15" d="M100.4,347.9c0.4,0,0.9,0.1,1.3,0.2c0.4,0.1,0.8,0.3,1.2,0.5l-0.6,1.3c-0.4-0.2-0.7-0.4-1-0.5
		s-0.6-0.2-0.9-0.2c-0.2,0-0.4,0-0.5,0.1c-0.1,0.1-0.2,0.2-0.2,0.4c0,0.2,0.1,0.3,0.3,0.4c0.2,0.1,0.4,0.2,0.6,0.3
		c0.3,0.1,0.5,0.2,0.8,0.2c0.3,0.1,0.6,0.2,0.8,0.4c0.3,0.2,0.5,0.3,0.6,0.6c0.1,0.3,0.2,0.5,0.2,0.9c0,0.3-0.1,0.6-0.2,0.9
		c-0.1,0.3-0.3,0.5-0.6,0.6c-0.2,0.2-0.5,0.3-0.8,0.4c-0.3,0.1-0.7,0.1-1,0.1c-0.5,0-1-0.1-1.5-0.2c-0.5-0.2-0.9-0.4-1.3-0.7
		l0.6-1.2c0.3,0.3,0.7,0.5,1.1,0.6s0.8,0.2,1.1,0.2c0.2,0,0.4,0,0.6-0.1c0.2-0.1,0.2-0.2,0.2-0.4c0-0.2-0.1-0.3-0.2-0.4
		c-0.2-0.1-0.4-0.2-0.6-0.3s-0.5-0.2-0.8-0.2s-0.6-0.2-0.8-0.3c-0.2-0.1-0.5-0.3-0.6-0.6c-0.2-0.2-0.2-0.5-0.2-0.9
		c0-0.3,0.1-0.6,0.2-0.9s0.3-0.5,0.5-0.6c0.2-0.2,0.5-0.3,0.8-0.4S100.1,347.9,100.4,347.9z"/>
</g>
<g class="st16">
	<path class="st15" d="M179.7,333.2v6.8h-1.9v-6.8h-2.6v-1.6h7v1.6H179.7z"/>
</g>
<g class="st16">
	<path class="st15" d="M185.6,333.5c0.5,0,1,0.1,1.4,0.2c0.4,0.2,0.8,0.4,1.1,0.7c0.3,0.3,0.5,0.6,0.7,1s0.3,0.9,0.3,1.4
		s-0.1,0.9-0.3,1.3c-0.2,0.4-0.4,0.8-0.7,1c-0.3,0.3-0.7,0.5-1.1,0.7s-0.9,0.2-1.4,0.2s-1-0.1-1.4-0.2c-0.4-0.2-0.8-0.4-1.1-0.7
		c-0.3-0.3-0.5-0.6-0.7-1c-0.2-0.4-0.3-0.9-0.3-1.3s0.1-0.9,0.3-1.4c0.2-0.4,0.4-0.8,0.7-1c0.3-0.3,0.7-0.5,1.1-0.7
		C184.6,333.6,185.1,333.5,185.6,333.5z M185.6,335c-0.5,0-0.9,0.2-1.2,0.5c-0.3,0.3-0.4,0.8-0.4,1.3s0.1,1,0.4,1.3s0.7,0.5,1.2,0.5
		c0.2,0,0.5,0,0.7-0.1s0.4-0.2,0.5-0.4s0.2-0.3,0.3-0.6c0.1-0.2,0.1-0.5,0.1-0.7c0-0.2,0-0.5-0.1-0.7s-0.2-0.4-0.3-0.6
		c-0.1-0.2-0.3-0.3-0.5-0.4S185.8,335,185.6,335z"/>
</g>
<g class="st16">
	<path class="st15" d="M194.3,333.5c0.5,0,0.9,0.1,1.2,0.2c0.4,0.2,0.7,0.4,1,0.7s0.5,0.6,0.6,1s0.2,0.9,0.2,1.4s-0.1,0.9-0.2,1.3
		c-0.1,0.4-0.3,0.7-0.6,1c-0.3,0.3-0.6,0.5-0.9,0.7c-0.4,0.2-0.8,0.2-1.2,0.2s-0.9-0.1-1.2-0.3c-0.3-0.2-0.6-0.4-0.9-0.8v3.3h-1.8
		v-8.7h1.8v0.9c0.2-0.3,0.5-0.6,0.9-0.8C193.6,333.4,193.9,333.5,194.3,333.5z M193.9,338.5c0.2,0,0.5,0,0.7-0.1s0.4-0.2,0.5-0.4
		s0.2-0.3,0.3-0.6c0.1-0.2,0.1-0.5,0.1-0.7c0-0.5-0.1-0.9-0.4-1.3c-0.3-0.3-0.7-0.5-1.2-0.5s-0.9,0.2-1.2,0.5
		c-0.3,0.3-0.4,0.8-0.4,1.3s0.1,1,0.4,1.3C193,338.4,193.4,338.5,193.9,338.5z"/>
</g>
<g class="st16">
	<path class="st15" d="M198.6,336.9v-1.2h3.1v1.2H198.6z"/>
</g>
<g class="st16">
	<path class="st15" d="M205.2,334.7c0.5-0.8,1.2-1.2,2.1-1.2v1.7c-0.3,0-0.6,0-0.9,0.1c-0.3,0.1-0.5,0.2-0.7,0.3
		c-0.2,0.2-0.3,0.3-0.4,0.6c-0.1,0.2-0.2,0.5-0.2,0.7v3.1h-1.8v-6.5h1.8v1.2H205.2z"/>
</g>
<g class="st16">
	<path class="st15" d="M212,339.2c-0.2,0.3-0.5,0.5-0.8,0.6c-0.3,0.1-0.7,0.2-1.2,0.2c-0.3,0-0.7,0-0.9-0.2
		c-0.3-0.1-0.5-0.2-0.7-0.4c-0.2-0.2-0.3-0.4-0.4-0.6c-0.1-0.2-0.2-0.5-0.2-0.8c0-0.6,0.2-1.1,0.6-1.4c0.4-0.3,1-0.5,1.8-0.5h1.8
		V336c0-0.3-0.1-0.6-0.3-0.8c-0.2-0.2-0.6-0.3-1-0.3c-0.3,0-0.6,0-0.9,0.1s-0.7,0.2-1,0.4l-0.6-1.3c0.2-0.1,0.5-0.2,0.7-0.3
		s0.5-0.2,0.7-0.2c0.2-0.1,0.5-0.1,0.7-0.1c0.3,0,0.5,0,0.8,0c0.9,0,1.5,0.2,2,0.6c0.5,0.4,0.7,1,0.7,1.7v4.2H212V339.2z
		 M210.5,338.8c0.4,0,0.7-0.1,1-0.3s0.4-0.4,0.5-0.7v-0.6h-1.5c-0.4,0-0.6,0.1-0.8,0.2c-0.2,0.1-0.3,0.3-0.3,0.6
		c0,0.2,0.1,0.4,0.3,0.6C210,338.7,210.2,338.8,210.5,338.8z"/>
</g>
<g class="st16">
	<path class="st15" d="M219.6,339.6c-0.2,0.1-0.5,0.2-0.8,0.3c-0.3,0.1-0.6,0.1-0.9,0.1s-0.6,0-0.8-0.1c-0.2-0.1-0.5-0.2-0.6-0.4
		c-0.1-0.2-0.3-0.4-0.4-0.6s-0.2-0.5-0.2-0.9v-3H215v-1.3h0.9v-1.8h1.8v1.8h1.8v1.3h-1.8v2.7c0,0.3,0.1,0.5,0.2,0.6s0.3,0.2,0.5,0.2
		s0.5-0.1,0.9-0.2L219.6,339.6z"/>
</g>
<g class="st16">
	<path class="st15" d="M223.3,333.5c0.6,0,1.1,0.1,1.5,0.3c0.4,0.2,0.8,0.4,1,0.8s0.5,0.7,0.6,1.2s0.1,1,0.1,1.6h-4.6
		c0.1,0.4,0.3,0.7,0.6,1c0.3,0.2,0.6,0.3,1.1,0.3c0.6,0,1.2-0.2,1.6-0.7l1,1c-0.3,0.4-0.7,0.6-1.2,0.8s-1,0.3-1.6,0.3
		c-0.5,0-1-0.1-1.4-0.2s-0.8-0.4-1.1-0.7c-0.3-0.3-0.5-0.6-0.7-1c-0.2-0.4-0.2-0.8-0.2-1.3s0.1-0.9,0.2-1.4c0.2-0.4,0.4-0.8,0.7-1
		c0.3-0.3,0.6-0.5,1.1-0.7C222.3,333.6,222.8,333.5,223.3,333.5z M224.7,336.2c0-0.4-0.2-0.8-0.4-1c-0.2-0.2-0.6-0.4-1-0.4
		s-0.7,0.1-1,0.4s-0.4,0.6-0.5,1H224.7z"/>
	<path class="st15" d="M234,340h-1.8v-0.9c-0.2,0.3-0.5,0.6-0.9,0.8c-0.3,0.2-0.7,0.3-1.2,0.3s-0.9-0.1-1.2-0.2
		c-0.4-0.2-0.7-0.4-1-0.7s-0.5-0.6-0.6-1.1c-0.1-0.4-0.2-0.9-0.2-1.4s0.1-0.9,0.2-1.3c0.1-0.4,0.3-0.8,0.6-1
		c0.3-0.3,0.6-0.5,0.9-0.7s0.8-0.2,1.2-0.2c0.5,0,0.9,0.1,1.2,0.3c0.4,0.2,0.6,0.4,0.9,0.8v-3.4h1.8v8.7L234,340L234,340z
		 M230.6,338.6c0.2,0,0.5,0,0.7-0.1s0.4-0.2,0.5-0.4s0.2-0.3,0.3-0.6c0.1-0.2,0.1-0.5,0.1-0.7c0-0.2,0-0.5-0.1-0.7s-0.2-0.4-0.3-0.6
		c-0.1-0.2-0.3-0.3-0.5-0.4s-0.4-0.1-0.7-0.1s-0.5,0-0.7,0.1s-0.4,0.2-0.5,0.4s-0.3,0.3-0.3,0.6c-0.1,0.2-0.1,0.5-0.1,0.7
		c0,0.5,0.2,1,0.5,1.3C229.7,338.4,230.1,338.6,230.6,338.6z"/>
</g>
<g class="st16">
	<path class="st15" d="M155.8,347.9c0.6,0,1.2,0.1,1.7,0.4c0.5,0.2,0.9,0.6,1.1,1l-1.2,0.9c-0.2-0.2-0.4-0.4-0.6-0.5
		s-0.5-0.2-0.8-0.2c-0.5,0-0.8,0.2-1.1,0.5c-0.3,0.3-0.4,0.7-0.4,1.3c0,0.5,0.1,1,0.4,1.3c0.3,0.3,0.7,0.5,1.1,0.5
		c0.7,0,1.2-0.3,1.5-0.8l1.3,0.9c-0.3,0.5-0.7,0.8-1.1,1.1s-1.1,0.4-1.7,0.4c-0.5,0-0.9-0.1-1.3-0.2c-0.4-0.2-0.8-0.4-1-0.7
		s-0.5-0.6-0.7-1s-0.2-0.8-0.2-1.3s0.1-0.9,0.2-1.4c0.2-0.4,0.4-0.8,0.7-1c0.3-0.3,0.6-0.5,1-0.7C154.9,348,155.4,347.9,155.8,347.9
		z"/>
	<path class="st15" d="M166,354.4h-1.8v-1.1c-0.2,0.4-0.5,0.7-0.9,0.9s-0.8,0.3-1.3,0.3c-0.7,0-1.3-0.2-1.7-0.7s-0.6-1-0.6-1.8v-4.1
		h1.8v3.5c0,0.4,0.1,0.7,0.3,1c0.2,0.2,0.5,0.3,0.9,0.3s0.8-0.2,1-0.5c0.3-0.3,0.4-0.7,0.4-1.2v-3.2h1.8v6.6H166z"/>
	<path class="st15" d="M169.9,347.9c0.4,0,0.9,0.1,1.3,0.2c0.4,0.1,0.8,0.3,1.2,0.5l-0.6,1.3c-0.4-0.2-0.7-0.4-1.1-0.5
		c-0.3-0.1-0.6-0.2-0.9-0.2c-0.2,0-0.4,0-0.5,0.1c-0.1,0.1-0.2,0.2-0.2,0.4c0,0.2,0.1,0.3,0.3,0.4c0.2,0.1,0.4,0.2,0.6,0.3
		c0.3,0.1,0.5,0.2,0.8,0.2c0.3,0.1,0.6,0.2,0.8,0.4c0.3,0.2,0.5,0.3,0.6,0.6c0.1,0.3,0.2,0.5,0.2,0.9c0,0.3-0.1,0.6-0.2,0.9
		s-0.3,0.5-0.6,0.6c-0.2,0.2-0.5,0.3-0.8,0.4c-0.3,0.1-0.7,0.1-1,0.1c-0.5,0-1-0.1-1.5-0.2c-0.5-0.2-0.9-0.4-1.3-0.7l0.6-1.2
		c0.3,0.3,0.7,0.5,1.1,0.6s0.8,0.2,1.1,0.2c0.2,0,0.4,0,0.6-0.1c0.2-0.1,0.2-0.2,0.2-0.4c0-0.2-0.1-0.3-0.2-0.4
		c-0.2-0.1-0.4-0.2-0.6-0.3s-0.5-0.2-0.8-0.2c-0.3-0.1-0.6-0.2-0.8-0.3c-0.2-0.1-0.5-0.3-0.6-0.6c-0.2-0.2-0.2-0.5-0.2-0.9
		c0-0.3,0.1-0.6,0.2-0.9s0.3-0.5,0.5-0.6c0.2-0.2,0.5-0.3,0.8-0.4C169.3,347.9,169.6,347.9,169.9,347.9z"/>
</g>
<g class="st16">
	<path class="st15" d="M178.4,354c-0.2,0.1-0.5,0.2-0.8,0.3c-0.3,0.1-0.6,0.1-0.9,0.1s-0.6,0-0.8-0.1c-0.2-0.1-0.5-0.2-0.6-0.4
		c-0.1-0.2-0.3-0.4-0.4-0.6s-0.2-0.5-0.2-0.9v-3h-0.9v-1.3h0.9v-1.6h1.8v1.8h1.8v1.3h-1.8v2.7c0,0.3,0.1,0.5,0.2,0.6
		c0.1,0.1,0.3,0.2,0.5,0.2s0.5-0.1,0.9-0.2L178.4,354z"/>
</g>
<g class="st16">
	<path class="st15" d="M182.2,347.9c0.5,0,1,0.1,1.4,0.2c0.4,0.1,0.8,0.4,1.1,0.7s0.5,0.6,0.7,1s0.3,0.9,0.3,1.4s-0.1,0.9-0.3,1.3
		c-0.2,0.4-0.4,0.8-0.7,1c-0.3,0.2-0.7,0.5-1.1,0.7s-0.9,0.2-1.4,0.2s-1-0.1-1.4-0.2s-0.8-0.4-1.1-0.7c-0.3-0.3-0.5-0.6-0.7-1
		c-0.2-0.4-0.3-0.9-0.3-1.3s0.1-0.9,0.3-1.4c0.2-0.4,0.4-0.8,0.7-1c0.3-0.3,0.7-0.5,1.1-0.7C181.2,347.9,181.7,347.9,182.2,347.9z
		 M182.2,349.4c-0.5,0-0.9,0.2-1.2,0.5s-0.4,0.8-0.4,1.3s0.1,1,0.4,1.3s0.7,0.5,1.2,0.5c0.2,0,0.5,0,0.7-0.1s0.4-0.2,0.5-0.4
		s0.2-0.3,0.3-0.6c0.1-0.2,0.1-0.5,0.1-0.7c0-0.2,0-0.5-0.1-0.7s-0.2-0.4-0.3-0.6c-0.1-0.2-0.3-0.3-0.5-0.4
		C182.7,349.5,182.4,349.4,182.2,349.4z"/>
</g>
<g class="st16">
	<path class="st15" d="M195.6,347.9c0.7,0,1.3,0.2,1.7,0.7c0.4,0.4,0.6,1,0.6,1.8v4.1h-1.8V351c0-0.4-0.1-0.7-0.3-1
		c-0.2-0.2-0.5-0.3-0.9-0.3s-0.8,0.2-1,0.5c-0.3,0.3-0.4,0.7-0.4,1.2v3.2h-1.8v-3.5c0-0.4-0.1-0.7-0.3-1c-0.2-0.2-0.5-0.3-0.9-0.3
		c-0.5,0-0.8,0.2-1.1,0.5c-0.3,0.3-0.4,0.7-0.4,1.2v3.2h-1.8v-6.5h1.8v1.1c0.2-0.4,0.5-0.7,0.9-0.9s0.8-0.3,1.3-0.3
		c0.6,0,1,0.1,1.4,0.4s0.6,0.6,0.8,1.1c0.2-0.5,0.5-0.9,0.9-1.1C194.6,348,195.1,347.9,195.6,347.9z"/>
</g>
<g class="st16">
	<path class="st15" d="M202.5,347.9c0.6,0,1.1,0.1,1.5,0.3c0.4,0.2,0.8,0.4,1,0.8s0.5,0.7,0.6,1.2s0.1,1,0.1,1.6H201
		c0.1,0.4,0.3,0.7,0.6,1c0.3,0.2,0.6,0.3,1.1,0.3c0.6,0,1.2-0.2,1.6-0.7l1,1c-0.3,0.4-0.7,0.6-1.2,0.8s-1,0.3-1.6,0.3
		c-0.5,0-1-0.1-1.4-0.2s-0.8-0.4-1.1-0.7c-0.3-0.3-0.5-0.6-0.7-1c-0.2-0.4-0.2-0.8-0.2-1.3s0.1-0.9,0.2-1.4c0.2-0.4,0.4-0.8,0.7-1
		c0.3-0.3,0.6-0.5,1.1-0.7C201.5,348,202,347.9,202.5,347.9z M203.9,350.6c0-0.4-0.2-0.8-0.4-1s-0.6-0.4-1-0.4s-0.7,0.1-1,0.4
		c-0.3,0.3-0.4,0.6-0.5,1H203.9z"/>
	<path class="st15" d="M208.7,349.1c0.5-0.8,1.2-1.2,2.1-1.2v1.7c-0.3,0-0.6,0-0.9,0.1s-0.5,0.2-0.7,0.3c-0.2,0.2-0.3,0.3-0.4,0.6
		c-0.1,0.2-0.2,0.5-0.2,0.7v3.1h-1.8v-6.5h1.8v1.2L208.7,349.1L208.7,349.1z"/>
	<path class="st15" d="M216.9,347.9c0.4,0,0.9,0.1,1.3,0.2c0.4,0.1,0.8,0.3,1.2,0.5l-0.6,1.3c-0.4-0.2-0.7-0.4-1-0.5
		s-0.6-0.2-0.9-0.2c-0.2,0-0.4,0-0.5,0.1c-0.1,0.1-0.2,0.2-0.2,0.4c0,0.2,0.1,0.3,0.3,0.4c0.2,0.1,0.4,0.2,0.6,0.3
		c0.3,0.1,0.5,0.2,0.8,0.2c0.3,0.1,0.6,0.2,0.8,0.4c0.3,0.2,0.5,0.3,0.6,0.6c0.1,0.3,0.2,0.5,0.2,0.9c0,0.3-0.1,0.6-0.2,0.9
		c-0.1,0.3-0.3,0.5-0.6,0.6c-0.2,0.2-0.5,0.3-0.8,0.4c-0.3,0.1-0.7,0.1-1,0.1c-0.5,0-1-0.1-1.5-0.2c-0.5-0.2-0.9-0.4-1.3-0.7
		l0.6-1.2c0.3,0.3,0.7,0.5,1.1,0.6s0.8,0.2,1.1,0.2c0.2,0,0.4,0,0.6-0.1c0.2-0.1,0.2-0.2,0.2-0.4c0-0.2-0.1-0.3-0.2-0.4
		c-0.2-0.1-0.4-0.2-0.6-0.3s-0.5-0.2-0.8-0.2s-0.6-0.2-0.8-0.3c-0.2-0.1-0.5-0.3-0.6-0.6c-0.2-0.2-0.2-0.5-0.2-0.9
		c0-0.3,0.1-0.6,0.2-0.9s0.3-0.5,0.5-0.6c0.2-0.2,0.5-0.3,0.8-0.4S216.6,347.9,216.9,347.9z"/>
	<path class="st15" d="M223.5,347.9c0.6,0,1.1,0.1,1.5,0.3c0.4,0.2,0.8,0.4,1,0.8c0.3,0.3,0.5,0.7,0.6,1.2s0.1,1,0.1,1.6H222
		c0.1,0.4,0.3,0.7,0.6,1c0.3,0.2,0.6,0.3,1.1,0.3c0.6,0,1.2-0.2,1.6-0.7l1,1c-0.3,0.4-0.7,0.6-1.2,0.8s-1,0.3-1.6,0.3
		c-0.5,0-1-0.1-1.4-0.2s-0.8-0.4-1.1-0.7c-0.3-0.3-0.5-0.6-0.7-1c-0.2-0.4-0.2-0.8-0.2-1.3s0.1-0.9,0.2-1.4c0.2-0.4,0.4-0.8,0.7-1
		c0.3-0.3,0.6-0.5,1-0.7C222.5,348,223,347.9,223.5,347.9z M224.9,350.6c0-0.4-0.1-0.8-0.4-1c-0.3-0.3-0.6-0.4-1-0.4s-0.7,0.1-1,0.4
		c-0.3,0.3-0.4,0.6-0.5,1H224.9z"/>
</g>
<g class="st16">
	<path class="st15" d="M231,349.1c0.5-0.8,1.2-1.2,2.1-1.2v1.7c-0.3,0-0.6,0-0.9,0.1s-0.5,0.2-0.7,0.3c-0.2,0.2-0.3,0.3-0.4,0.6
		c-0.1,0.2-0.2,0.5-0.2,0.7v3.1h-1.8v-6.5h1.8v1.2L231,349.1L231,349.1z"/>
</g>
<g class="st16">
	<path class="st15" d="M235.9,354.4l-2.4-6.4h1.9l1.5,4.7l1.5-4.7h1.8l-2.4,6.5h-1.9V354.4z"/>
	<path class="st15" d="M242,345.1c0.3,0,0.5,0.1,0.7,0.3c0.2,0.2,0.3,0.4,0.3,0.7s-0.1,0.6-0.3,0.7c-0.2,0.2-0.4,0.3-0.7,0.3
		c-0.3,0-0.5-0.1-0.7-0.3c-0.2-0.2-0.3-0.4-0.3-0.7s0.1-0.6,0.3-0.7C241.4,345.2,241.7,345.1,242,345.1z M241.1,354.4v-6.5h1.8v6.5
		H241.1z"/>
</g>
<g class="st16">
	<path class="st15" d="M247.5,347.9c0.6,0,1.2,0.1,1.7,0.4c0.5,0.2,0.9,0.6,1.1,1l-1.2,0.9c-0.2-0.2-0.4-0.4-0.6-0.5
		s-0.5-0.2-0.8-0.2c-0.5,0-0.8,0.2-1.1,0.5c-0.3,0.3-0.4,0.7-0.4,1.3c0,0.5,0.1,1,0.4,1.3c0.3,0.3,0.7,0.5,1.1,0.5
		c0.7,0,1.2-0.3,1.5-0.8l1.3,0.9c-0.3,0.5-0.7,0.8-1.1,1.1s-1.1,0.4-1.7,0.4c-0.5,0-0.9-0.1-1.3-0.2c-0.4-0.2-0.8-0.4-1-0.7
		s-0.5-0.6-0.7-1s-0.2-0.8-0.2-1.3s0.1-0.9,0.2-1.4c0.2-0.4,0.4-0.8,0.7-1c0.3-0.3,0.6-0.5,1-0.7C246.6,348,247.1,347.9,247.5,347.9
		z"/>
</g>
<g class="st16">
	<path class="st15" d="M254.5,347.9c0.6,0,1.1,0.1,1.5,0.3c0.4,0.2,0.8,0.4,1,0.8s0.5,0.7,0.6,1.2s0.1,1,0.1,1.6H253
		c0.1,0.4,0.3,0.7,0.6,1c0.3,0.2,0.6,0.3,1.1,0.3c0.6,0,1.2-0.2,1.6-0.7l1,1c-0.3,0.4-0.7,0.6-1.2,0.8s-1,0.3-1.6,0.3
		c-0.5,0-1-0.1-1.4-0.2s-0.8-0.4-1.1-0.7c-0.3-0.3-0.5-0.6-0.7-1c-0.2-0.4-0.2-0.8-0.2-1.3s0.1-0.9,0.2-1.4c0.2-0.4,0.4-0.8,0.7-1
		c0.3-0.3,0.6-0.5,1.1-0.7C253.5,348,254,347.9,254.5,347.9z M255.9,350.6c0-0.4-0.2-0.8-0.4-1s-0.6-0.4-1-0.4s-0.7,0.1-1,0.4
		c-0.3,0.3-0.4,0.6-0.5,1H255.9z"/>
</g>
</svg>
